<svg width="136" height="40" viewBox="0 0 136 40" fill="none" xmlns="http://www.w3.org/2000/svg">
<path d="M40.6309 22.8453C36.5094 28.5511 31.5572 33.6266 25.9341 37.9082L25.9069 37.9282H21.833L22.0978 37.7542C27.73 34.1424 33.2706 28.8135 38.1729 22.3131C43.2416 15.5783 45.3329 8.9239 43.503 5.31551C42.6373 3.61843 40.9398 2.7247 38.5973 2.72135C33.24 2.72135 24.8647 7.24021 17.5893 14.1892H15.8511L16.014 14.0285C24.5591 5.50965 34.2483 0 40.6954 0C43.5845 0 45.6622 1.04436 46.701 3.01257C48.8161 7.02933 46.4906 14.6277 40.6309 22.8453ZM36.5094 22.2629C41.1062 15.8193 42.8614 10.0854 41.2012 6.93226C40.3932 5.39919 38.784 4.58915 36.5399 4.58915C31.9533 4.58915 25.2008 8.20758 18.9235 14.0319L18.7504 14.1892H20.6481C25.6387 9.89127 30.7176 7.30046 34.6795 7.30046C36.3498 7.30046 37.5652 7.94649 38.1831 9.16825C39.5411 11.8461 37.9421 16.9708 34.194 21.9114C26.9356 31.4746 17.9933 36.6395 13.2675 36.6395C11.7466 36.6395 10.6296 36.1508 9.94044 35.1902C8.92195 33.7675 8.95251 31.3943 10.0083 28.4956L10.1509 28.1173L0 37.9416H18.7198C24.9903 34.8688 31.8006 28.8638 36.5094 22.2629Z" fill="#5C5C5C"/>
<path d="M30.1206 22.5038L25.0553 27.4946H16.9278L18.3333 26.072H24.4986L29.1157 21.5164L30.1206 22.5038ZM18.4521 19.8963L10.7422 27.4946H12.7452L20.4518 19.8963H18.4521ZM20.54 23.9365L19.1277 25.3289H24.176L28.5895 20.9775L27.571 19.9733L23.5887 23.9365H20.54ZM21.4227 20.0034L13.818 27.4946H15.821L22.4242 20.9875L21.4227 20.0034ZM23.5038 20.9875L23.4291 21.0578L22.156 22.2996L23.1542 23.2871L25.5001 20.9875L22.1934 17.7406H12.2529L10.8406 19.1364H21.6128L23.5038 20.9875ZM22.5193 16.9707L26.0399 20.4553L27.0584 19.4511L23.0863 15.5615H14.4529L13.0406 16.9573H22.4921L22.5193 16.9707Z" fill="#5C5C5C"/>
<path d="M66.8299 31.4645C66.5478 31.1583 66.1998 30.9182 65.8114 30.7615C65.3813 30.5858 64.919 30.4992 64.4535 30.5071C64.0617 30.5102 63.6731 30.5757 63.3026 30.7013C62.9084 30.8334 62.5497 31.052 62.2535 31.3406C61.9183 31.6701 61.658 32.066 61.4897 32.5021C61.2814 33.0763 61.1824 33.6834 61.1977 34.2929C61.1772 34.9203 61.2763 35.5459 61.4897 36.1373C61.6517 36.5709 61.9118 36.9624 62.2501 37.2821C62.5487 37.557 62.9095 37.7578 63.3026 37.8678C63.6857 37.9753 64.0823 38.0294 64.4806 38.0285C64.9711 38.0256 65.458 37.9466 65.9235 37.7942C66.4281 37.6229 66.8907 37.3492 67.2815 36.9909C67.1053 36.804 66.9387 36.6085 66.7824 36.4051C66.633 36.2109 66.4667 36.0168 66.2867 35.8226C66.0242 36.0688 65.7085 36.253 65.3633 36.3616C65.093 36.4539 64.8105 36.5069 64.5248 36.5189C64.2799 36.5238 64.0372 36.4734 63.8152 36.3716C63.6231 36.2752 63.4532 36.1407 63.3162 35.9766C63.1877 35.808 63.0921 35.6173 63.0344 35.4143C62.9735 35.1963 62.9437 34.9709 62.9461 34.7448H67.6515V34.0151C67.6602 33.5224 67.5868 33.0316 67.4342 32.5624C67.3143 32.1582 67.1083 31.7839 66.8299 31.4645ZM63.0004 33.5632C63.0296 33.1482 63.2008 32.7552 63.4859 32.4486C63.6112 32.3177 63.763 32.2143 63.9314 32.1451C64.0999 32.0759 64.2812 32.0424 64.4636 32.0469C64.6437 32.0437 64.8225 32.0764 64.9894 32.1431C65.1563 32.2099 65.3077 32.3092 65.4346 32.4352C65.7248 32.7446 65.8839 33.1518 65.8793 33.5733L63.0004 33.5632ZM73.5519 30.5975H75.2223V37.9415H73.5519V34.8988H70.6153V37.9415H68.9178V30.6076H70.6153V33.59H73.5621L73.5519 30.5975ZM82.3788 34.9155L84.1103 35.6285C83.8708 36.3508 83.3927 36.9731 82.7523 37.3959C82.0587 37.8341 81.2467 38.0546 80.4233 38.0285C79.8428 38.0405 79.2657 37.9381 78.7259 37.7273C78.2625 37.5442 77.8471 37.2605 77.5105 36.8971C77.1874 36.5338 76.9436 36.1088 76.7941 35.6486C76.633 35.1487 76.5539 34.6266 76.5599 34.1021V31.4645C76.5567 30.9599 76.6358 30.4581 76.7941 29.9783C76.9472 29.5186 77.1906 29.0932 77.5105 28.7264C77.8462 28.3538 78.2612 28.0589 78.7259 27.8628C79.2638 27.6442 79.8416 27.5371 80.4233 27.5481C81.2521 27.5215 82.0679 27.756 82.7523 28.2176C83.3693 28.6465 83.8347 29.2552 84.0831 29.9582L82.3653 30.6276C82.2478 30.2382 82.0105 29.8943 81.6863 29.6435C81.3334 29.3824 80.9018 29.2456 80.4607 29.2552C80.149 29.2481 79.8395 29.3087 79.5542 29.4326C79.3056 29.5441 79.0862 29.7101 78.9126 29.918C78.7411 30.1215 78.6109 30.3556 78.529 30.6076C78.4441 30.8614 78.4005 31.1269 78.3999 31.3942V34.1423C78.3991 34.4217 78.4426 34.6996 78.529 34.9657C78.6107 35.2218 78.7409 35.4603 78.9126 35.6687C79.0836 35.8825 79.3035 36.0534 79.5542 36.1674C79.8378 36.2977 80.1479 36.3618 80.4607 36.3549C80.9121 36.3706 81.355 36.231 81.7134 35.9599C82.0416 35.6928 82.2766 35.3311 82.3856 34.9256L82.3788 34.9155ZM85.122 30.5975H91.3347V37.9415H89.6373V32.0469H86.8228V37.9515H85.1254L85.122 30.5975ZM98.2401 31.4645C97.9585 31.1576 97.6104 30.9173 97.2216 30.7615C96.7914 30.5858 96.3292 30.4992 95.8636 30.5071C95.4708 30.5102 95.081 30.5757 94.7093 30.7013C94.3159 30.835 93.9575 31.0534 93.6603 31.3406C93.3264 31.6711 93.0662 32.0667 92.8964 32.5021C92.6865 33.0758 92.5875 33.6833 92.6044 34.2929C92.584 34.9203 92.683 35.5459 92.8964 36.1373C93.061 36.5696 93.3207 36.9606 93.6569 37.2821C93.9568 37.5571 94.3187 37.7579 94.7127 37.8678C95.0947 37.9753 95.4901 38.0294 95.8874 38.0285C96.379 38.0259 96.8671 37.9468 97.3336 37.7942C97.838 37.6225 98.3005 37.3488 98.6916 36.9909C98.5117 36.7967 98.3521 36.5992 98.1959 36.4051C98.0398 36.2109 97.8768 36.0168 97.6969 35.8226C97.4338 36.0698 97.1167 36.2541 96.7701 36.3616C96.5011 36.4544 96.2196 36.5074 95.9349 36.5189C95.6911 36.5242 95.4494 36.4738 95.2288 36.3716C95.0365 36.2769 94.8673 36.1421 94.7331 35.9766C94.5999 35.81 94.5018 35.6188 94.4445 35.4143C94.3836 35.1963 94.3539 34.9709 94.3562 34.7448H99.065V34.0151C99.0705 33.5226 98.9972 33.0323 98.8478 32.5624C98.7253 32.1585 98.5183 31.7845 98.2401 31.4645ZM94.4106 33.5632C94.4328 33.1468 94.598 32.7501 94.8791 32.4385C95.0051 32.3077 95.1575 32.2044 95.3265 32.1353C95.4955 32.0661 95.6773 32.0326 95.8602 32.0368C96.0397 32.0339 96.218 32.0667 96.3842 32.1335C96.5505 32.2002 96.7014 32.2994 96.8278 32.4251C97.1192 32.7341 97.2796 33.1413 97.2759 33.5632H94.4106ZM106.67 36.4452H107.763V40.0001H106.228V37.9515H100.372V30.6076H102.07V36.4553H104.986V30.6076H106.663L106.67 36.4452ZM114.383 34.9155L116.115 35.6285C115.875 36.3508 115.397 36.9731 114.757 37.3959C114.064 37.8334 113.253 38.054 112.431 38.0285C111.851 38.0397 111.274 37.9373 110.734 37.7273C110.271 37.5442 109.857 37.2604 109.522 36.8971C109.196 36.5348 108.951 36.1096 108.802 35.6486C108.641 35.1487 108.562 34.6266 108.568 34.1021V31.4645C108.564 30.9599 108.643 30.4581 108.802 29.9783C108.955 29.5179 109.2 29.0923 109.522 28.7264C109.856 28.3538 110.27 28.0589 110.734 27.8628C111.272 27.6449 111.849 27.5378 112.431 27.5481C113.259 27.522 114.073 27.7565 114.757 28.2176C115.376 28.6437 115.841 29.2535 116.084 29.9582L114.37 30.6276C114.252 30.2382 114.015 29.8943 113.691 29.6435C113.329 29.378 112.885 29.2432 112.434 29.2619C112.122 29.2549 111.811 29.3154 111.525 29.4393C111.277 29.5526 111.058 29.7183 110.883 29.9247C110.711 30.1282 110.581 30.3623 110.499 30.6142C110.415 30.8682 110.373 31.1338 110.374 31.4009V34.1423C110.372 34.4216 110.414 34.6994 110.499 34.9657C110.581 35.2218 110.711 35.4603 110.883 35.6687C111.055 35.881 111.275 36.0516 111.525 36.1674C111.809 36.2982 112.121 36.3624 112.434 36.3549C112.885 36.3701 113.326 36.2305 113.684 35.9599C114.022 35.6967 114.267 35.3346 114.383 34.9256V34.9155ZM125.043 27.6117H126.788V37.9415H124.965V31.8226H124.935L124.381 33.1615L123.611 34.8352L122.796 36.5256H121.339L120.738 35.2636L119.744 33.0946L119.187 31.7992L119.143 31.8461V37.9448H117.323V27.6218H119.021L120.379 30.5774C120.674 31.2 120.949 31.8193 121.217 32.4352L122.022 34.2896H122.083L122.925 32.3147L123.692 30.5774L125.043 27.6117ZM135.863 27.6117L132.808 35.6452C132.656 36.056 132.477 36.4563 132.271 36.8436C132.117 37.1288 131.919 37.3885 131.684 37.6134C131.484 37.7979 131.245 37.9362 130.984 38.0185C130.704 38.1066 130.41 38.1484 130.115 38.1423H129.138V36.5959H129.844C130.053 36.6052 130.261 36.554 130.441 36.4486C130.626 36.3107 130.77 36.1255 130.855 35.913L130.961 35.6452L127.783 27.6117H129.769L130.9 30.8787L131.86 33.5565H131.935L132.808 30.9155L133.921 27.6184L135.863 27.6117ZM53.4029 27.6117H60.0909V37.9314H58.2746V29.2285H55.0902V34.0586C55.0902 34.9724 55.0902 36.3013 54.4927 37.0511C53.8951 37.8009 52.8767 37.9381 52.269 37.9381H51.8242V36.318H51.8887C52.134 36.3309 52.3786 36.2832 52.6003 36.1791C52.8221 36.0751 53.0139 35.918 53.1584 35.7222C53.3447 35.2832 53.4272 34.8082 53.3995 34.3331V27.6218L53.4029 27.6117ZM77.1676 23.4544C76.9518 23.6683 76.6936 23.836 76.4091 23.9472C76.1247 24.0583 75.82 24.1105 75.5142 24.1004H74.9337V22.6008H75.1679C75.3322 22.6248 75.4999 22.6016 75.6511 22.5339C75.8022 22.4662 75.9304 22.357 76.0201 22.2192C76.146 21.8072 76.2 21.3771 76.1796 20.9472V16.6727H81.6387V24.1004H79.9175V18.1389H77.7447V21.0041C77.7447 21.841 77.7447 22.8753 77.1846 23.4644L77.1676 23.4544ZM87.6919 23.8226C88.1933 23.5959 88.6143 23.2263 88.9005 22.7615C89.0839 22.4365 89.2145 22.0853 89.2876 21.7205C89.3831 21.2387 89.4275 20.7485 89.42 20.2577C89.4326 19.7927 89.3916 19.3278 89.2978 18.8719C89.2215 18.4967 89.0765 18.1382 88.87 17.8142C88.5975 17.4182 88.2223 17.1015 87.7836 16.897C87.3085 16.671 86.7868 16.5564 86.2593 16.5623C85.6249 16.5485 84.9981 16.7009 84.443 17.0041C83.9249 17.293 83.5126 17.7358 83.2649 18.2694C83.1146 18.5721 83.0138 18.8963 82.9662 19.2301C82.9088 19.6067 82.8815 19.9873 82.8847 20.3682C82.8643 21.5174 83.0624 22.3966 83.4788 23.0058C83.7417 23.3983 84.116 23.7056 84.555 23.8895C85.0594 24.0883 85.5992 24.1847 86.1423 24.1732C86.6853 24.1617 87.2204 24.0425 87.7157 23.8226H87.6919ZM84.8062 21.8142C84.7087 21.6153 84.6467 21.4013 84.6229 21.1816C84.5902 20.9184 84.5743 20.6534 84.5754 20.3882C84.5834 20.1227 84.6072 19.8578 84.6467 19.5949C84.6755 19.3636 84.7396 19.1379 84.8368 18.9255C84.9517 18.6745 85.1365 18.4609 85.3698 18.3096C85.6072 18.1614 85.8833 18.0846 86.1642 18.0887C86.4368 18.0854 86.7049 18.1573 86.9383 18.2962C87.1755 18.4504 87.3546 18.6774 87.4475 18.9422C87.6008 19.3589 87.6678 19.8017 87.6444 20.2443C87.6501 20.5102 87.6399 20.7762 87.6139 21.041C87.5986 21.2194 87.5633 21.3957 87.5086 21.5665C87.4322 21.8774 87.2493 22.1528 86.9907 22.3462C86.7321 22.5395 86.4138 22.6389 86.0895 22.6276C85.8132 22.6321 85.5417 22.5565 85.3087 22.41C85.0934 22.2634 84.9268 22.0572 84.83 21.8175L84.8062 21.8142ZM95.3306 21.0041H92.3498V24.077H90.6456V16.6627H92.36V19.6753H95.3408V16.6627H97.0383V24.0803H95.3408L95.3306 21.0041ZM58.0845 20.2242V19.5179H54.8152V17.9313H58.0845V17.4527C58.0854 17.1878 58.0546 16.9238 57.9929 16.666C57.9331 16.4169 57.8247 16.1815 57.6737 15.9732C57.5101 15.7633 57.2984 15.5946 57.0558 15.4811C56.6948 15.33 56.3017 15.2686 55.9109 15.3025C55.5202 15.3363 55.1439 15.4644 54.8152 15.6752C54.4598 15.918 54.1979 16.2718 54.0717 16.6794L52.3369 16.01C52.4674 15.6483 52.6553 15.3093 52.8936 15.0058C53.1337 14.7045 53.4214 14.4434 53.7458 14.2326C54.0808 14.0144 54.4486 13.8495 54.8355 13.7439C55.2581 13.6234 55.696 13.5637 56.1358 13.5664C56.7461 13.5533 57.3523 13.6674 57.9148 13.9012C58.3651 14.0922 58.7621 14.3873 59.0725 14.7614C59.373 15.1348 59.5915 15.5657 59.7141 16.0267C59.8483 16.5156 59.9156 17.0199 59.9144 17.5263V20.2041C59.917 20.7358 59.8345 21.2644 59.67 21.7707C59.517 22.2364 59.2646 22.6644 58.9299 23.0259C58.5909 23.3866 58.1761 23.67 57.7145 23.856C57.1663 24.0713 56.5798 24.1761 55.9898 24.164C55.1608 24.1899 54.3436 23.9657 53.6473 23.5213C53.0061 23.092 52.5283 22.4642 52.2893 21.7372L54.0242 21.0175C54.1482 21.4241 54.3901 21.7859 54.7201 22.0585C55.0788 22.3367 55.5272 22.4781 55.983 22.4569C56.3145 22.4645 56.6435 22.4005 56.9472 22.2694C57.2024 22.1548 57.4268 21.9828 57.6024 21.7673C57.7692 21.5551 57.8926 21.313 57.9657 21.0544C58.0451 20.7846 58.0851 20.5051 58.0845 20.2242ZM63.0649 18.1355H60.7699V16.6828H67.0642V18.1355H64.7658V24.1004H63.0513L63.0649 18.1355ZM71.1891 23.9966C71.5215 23.8931 71.8155 23.6951 72.0344 23.4276H72.065V24.0971H73.7624V19.0795C73.7772 18.667 73.691 18.2571 73.5112 17.8845C73.3533 17.5798 73.1197 17.3195 72.8322 17.128C72.5385 16.9369 72.2099 16.8038 71.8647 16.7363C71.4688 16.6596 71.0663 16.6215 70.6628 16.6225C70.1489 16.6213 69.6376 16.6946 69.1453 16.8401C68.6623 16.9851 68.2227 17.2449 67.8654 17.5966L68.7786 18.738C68.9938 18.5372 69.2478 18.3812 69.5255 18.2794C69.8627 18.165 70.2181 18.1117 70.5746 18.1221C70.82 18.1161 71.0649 18.1466 71.3011 18.2125C71.4674 18.26 71.623 18.3384 71.7594 18.4435C71.8662 18.5333 71.948 18.6485 71.9971 18.7782C72.0418 18.9087 72.0648 19.0455 72.065 19.1832V19.7221H70.028C69.6532 19.7153 69.2803 19.7766 68.928 19.9029C68.631 20.0087 68.3593 20.1739 68.1302 20.3882C67.9204 20.5867 67.7531 20.8246 67.6379 21.0878C67.5289 21.3595 67.4736 21.6492 67.475 21.9414C67.4556 22.2514 67.5086 22.5616 67.6298 22.8483C67.7511 23.1349 67.9373 23.3904 68.1743 23.595C68.7154 24.0074 69.3894 24.213 70.0721 24.174C70.4517 24.1743 70.8288 24.1144 71.1891 23.9966ZM69.3931 22.4435C69.2928 22.3677 69.2144 22.2673 69.1657 22.1523C69.1216 22.046 69.0985 21.9324 69.0978 21.8175C69.0975 21.7054 69.1227 21.5946 69.1715 21.4932C69.2202 21.3919 69.2913 21.3026 69.3795 21.2318C69.6548 21.0486 69.9858 20.9646 70.3166 20.9941H72.065V21.4728C72.0638 21.5489 72.0582 21.6249 72.048 21.7004C72.035 21.8781 71.9715 22.0487 71.8647 22.1924C71.7634 22.3215 71.6363 22.4286 71.4912 22.5071C71.3372 22.5898 71.1712 22.6485 70.9989 22.6811C70.8142 22.7148 70.6267 22.7316 70.4388 22.7314C70.2242 22.7371 70.01 22.71 69.8039 22.651C69.6567 22.6038 69.518 22.5337 69.3931 22.4435Z" fill="#5C5C5C"/>
</svg>
