<svg width="56" height="56" viewBox="0 0 56 56" fill="none" xmlns="http://www.w3.org/2000/svg">
<g filter="url(#filter0_d)">
<path d="M21 50V24.6L28 11.7L35 24.6V50" stroke="white" stroke-miterlimit="10"/>
<path d="M24.7998 18H30.9998" stroke="white" stroke-miterlimit="10"/>
<path d="M21 25.1L24.4 28L27.8 25.1L31.2 28L34.6 25.1" stroke="white" stroke-miterlimit="10"/>
<path d="M43 34V28C43 26.9 42.1 26 41 26C39.9 26 39 26.9 39 28V34H43Z" stroke="white" stroke-miterlimit="10"/>
<path d="M39 30H43" stroke="white" stroke-miterlimit="10"/>
<path d="M13 34V28C13 26.9 13.9 26 15 26C16.1 26 17 26.9 17 28V34H13Z" stroke="white" stroke-miterlimit="10"/>
<path d="M17 30H13" stroke="white" stroke-miterlimit="10"/>
<path d="M43 45V39C43 37.9 42.1 37 41 37C39.9 37 39 37.9 39 39V45H43Z" stroke="white" stroke-miterlimit="10"/>
<path d="M39 41H43" stroke="white" stroke-miterlimit="10"/>
<path d="M13 45V39C13 37.9 13.9 37 15 37C16.1 37 17 37.9 17 39V45H13Z" stroke="white" stroke-miterlimit="10"/>
<path d="M17 41H13" stroke="white" stroke-miterlimit="10"/>
<path d="M28 13V3H37V7L34 10V11H41V7H37H28" stroke="white" stroke-miterlimit="10"/>
<path d="M7 50V38L5 36V34H7V22H5V19.7L10 15H22" stroke="white" stroke-miterlimit="10"/>
<path d="M10 34H7" stroke="white" stroke-miterlimit="10"/>
<path d="M7 22H22.2" stroke="white" stroke-miterlimit="10"/>
<path d="M49 50V38L51 36V34H49V22H51V19.7L46 15H34" stroke="white" stroke-miterlimit="10"/>
<path d="M46 34H49" stroke="white" stroke-miterlimit="10"/>
<path d="M48.9998 22H33.7998" stroke="white" stroke-miterlimit="10"/>
<path d="M4 49H52" stroke="white" stroke-miterlimit="10"/>
</g>
<defs>
<filter id="filter0_d" x="0" y="0.5" width="56" height="55.5" filterUnits="userSpaceOnUse" color-interpolation-filters="sRGB">
<feFlood flood-opacity="0" result="BackgroundImageFix"/>
<feColorMatrix in="SourceAlpha" type="matrix" values="0 0 0 0 0 0 0 0 0 0 0 0 0 0 0 0 0 0 127 0"/>
<feOffset dy="2"/>
<feGaussianBlur stdDeviation="2"/>
<feColorMatrix type="matrix" values="0 0 0 0 0 0 0 0 0 0 0 0 0 0 0 0 0 0 0.3 0"/>
<feBlend mode="normal" in2="BackgroundImageFix" result="effect1_dropShadow"/>
<feBlend mode="normal" in="SourceGraphic" in2="effect1_dropShadow" result="shape"/>
</filter>
</defs>
</svg>
