<svg width="48" height="48" viewBox="0 0 48 48" fill="none" xmlns="http://www.w3.org/2000/svg">
<path d="M30.1002 1.2998L28.2002 8.2998" stroke="#938784" stroke-miterlimit="10" stroke-linecap="round"/>
<path d="M24 1V4.5" stroke="#938784" stroke-miterlimit="10" stroke-linecap="round"/>
<path d="M35.9996 3.2002L34.0996 6.5002" stroke="#938784" stroke-miterlimit="10" stroke-linecap="round"/>
<path d="M40.9996 7L36.0996 11.9" stroke="#938784" stroke-miterlimit="10" stroke-linecap="round"/>
<path d="M44.8 12L40.5 14.5" stroke="#938784" stroke-miterlimit="10" stroke-linecap="round"/>
<path d="M47.1998 17.7998L44.2998 18.5998" stroke="#938784" stroke-miterlimit="10" stroke-linecap="round"/>
<path d="M47 24H41" stroke="#938784" stroke-miterlimit="10" stroke-linecap="round"/>
<path d="M17.7998 1L18.9998 5.3" stroke="#938784" stroke-miterlimit="10" stroke-linecap="round"/>
<path d="M12 3.2002L15.9 10.1002" stroke="#938784" stroke-miterlimit="10" stroke-linecap="round"/>
<path d="M7 7L9.2 9.2" stroke="#938784" stroke-miterlimit="10" stroke-linecap="round"/>
<path d="M3.2002 12L8.5002 15.1" stroke="#938784" stroke-miterlimit="10" stroke-linecap="round"/>
<path d="M1 17.7998L6.3 19.1998" stroke="#938784" stroke-miterlimit="10" stroke-linecap="round"/>
<path d="M1 24H3" stroke="#938784" stroke-miterlimit="10" stroke-linecap="round"/>
<path d="M1 30.1998L5.6 28.7998" stroke="#938784" stroke-miterlimit="10" stroke-linecap="round"/>
<path d="M3.2002 36L5.8002 34.5" stroke="#938784" stroke-miterlimit="10" stroke-linecap="round"/>
<path d="M7 41.0002L9.3 38.7002" stroke="#938784" stroke-miterlimit="10" stroke-linecap="round"/>
<path d="M12 44.8L14.5 40.5" stroke="#938784" stroke-miterlimit="10" stroke-linecap="round"/>
<path d="M17.7998 46.9998L18.5998 44.2998" stroke="#938784" stroke-miterlimit="10" stroke-linecap="round"/>
<path d="M24 47V43.5" stroke="#938784" stroke-miterlimit="10" stroke-linecap="round"/>
<path d="M30.2004 47L28.4004 40.5" stroke="#938784" stroke-miterlimit="10" stroke-linecap="round"/>
<path d="M36 44.8002L34.5 42.2002" stroke="#938784" stroke-miterlimit="10" stroke-linecap="round"/>
<path d="M41.0002 41.0001L39.2002 39.1001" stroke="#938784" stroke-miterlimit="10" stroke-linecap="round"/>
<path d="M44.8002 36L42.2002 34.5" stroke="#938784" stroke-miterlimit="10" stroke-linecap="round"/>
<path d="M46.9998 30.2L42.7998 29" stroke="#938784" stroke-miterlimit="10" stroke-linecap="round"/>
<path d="M21.8606 29C16.5432 24 19.8436 17.9815 22.1356 15.2963C22.5023 14.9259 23.4191 14 23.4191 14C25.2527 20.3889 30.2419 19.2407 28.5 26" stroke="#938784" stroke-miterlimit="10"/>
<path d="M22 34.9999C14.9157 33.08 15 26.4562 15 26.4562C15 26.4562 19.2349 25.868 20.5 27.5" stroke="#938784" stroke-miterlimit="10"/>
<path d="M26.5747 35C32.2254 33.6667 36.248 28.8095 32.6085 23C31.4592 25.2857 26.6704 25.7619 26 28.5238" stroke="#938784" stroke-miterlimit="10"/>
</svg>
