<svg width="46" height="46" viewBox="0 0 46 46" fill="none" xmlns="http://www.w3.org/2000/svg">
<path d="M15.9004 2.3999H12.9004V3.8999H15.9004V2.3999Z" fill="#938784"/>
<path d="M18.9004 2.3999H17.4004V3.8999H18.9004V2.3999Z" fill="#938784"/>
<path d="M44.6 27.3H35.5C35.5 26 34.5 25 33.2 25C31.9 25 30.9 26 30.9 27.3H30.1V7.7H34.6C35 7.7 35.4 7.4 35.4 6.9V0.8C35.4 0.4 35.1 0 34.6 0H10.6C10.2 0 9.8 0.3 9.8 0.8V6.8C9.8 7.2 10.1 7.6 10.6 7.6H15.1V11.4H14.3C14.3 10.1 13.3 9.1 12 9.1C10.7 9.1 9.7 10.1 9.7 11.4H0.8C0.3 11.4 0 11.8 0 12.2V16.7C0 17.1 0.3 17.5 0.8 17.5H9.9C9.9 18.8 10.9 19.8 12.2 19.8C13.5 19.8 14.5 18.8 14.5 17.5H15.3V37.9C15.3 42.1 18.7 45.5 22.9 45.5C27.1 45.5 30.5 42.1 30.5 37.9V33.4H31C31 34.7 32 35.7 33.3 35.7C34.6 35.7 35.6 34.7 35.6 33.4H44.7C45.1 33.4 45.5 33.1 45.5 32.6V28.1C45.4 27.6 45 27.3 44.6 27.3ZM9.8 16H1.5V13H9.8V16ZM12.9 17.5C12.9 17.9 12.6 18.3 12.1 18.3C11.6 18.3 11.3 18 11.3 17.5V11.5C11.3 11.1 11.6 10.7 12.1 10.7C12.6 10.7 12.9 11 12.9 11.5V17.5ZM15.1 16H14.3V13H15.1V16ZM28.7 37.9C28.7 41.2 26 43.9 22.7 43.9C19.4 43.9 16.7 41.2 16.7 37.9V7.7H28.8V37.9H28.7ZM11.3 6.1V1.6H34V6.1H11.3ZM31 31.8H30.2V28.8H31V31.8ZM34 33.4C34 33.8 33.7 34.2 33.2 34.2C32.7 34.2 32.4 33.9 32.4 33.4V27.4C32.4 27 32.7 26.6 33.2 26.6C33.7 26.6 34 26.9 34 27.4V33.4ZM43.8 31.8H35.5V28.8H43.8V31.8Z" fill="#938784"/>
<path d="M22.7004 26.5C24.8004 26.5 26.5004 24.8 26.5004 22.7C26.5004 20.8 23.8004 18.1 23.2004 17.6C22.9004 17.3 22.5004 17.3 22.2004 17.6C21.7004 18.1 18.9004 20.8 18.9004 22.7C18.9004 24.9 20.6004 26.5 22.7004 26.5ZM22.7004 19.3C23.8004 20.4 25.0004 22 25.0004 22.8C25.0004 24.1 24.0004 25.1 22.7004 25.1C21.4004 25.1 20.4004 24.1 20.4004 22.8C20.4004 22 21.6004 20.4 22.7004 19.3Z" fill="#938784"/>
<path d="M23.7002 28.6001L24.7002 29.6001H19.7002V31.1001H24.7002L23.7002 32.1001L24.8002 33.2001L27.1002 30.9001C27.4002 30.6001 27.4002 30.2001 27.1002 29.9001L24.8002 27.6001L23.7002 28.6001Z" fill="#938784"/>
</svg>
