<svg width="48" height="48" viewBox="0 0 48 48" fill="none" xmlns="http://www.w3.org/2000/svg">
<path d="M24 45C35.598 45 45 35.598 45 24C45 12.402 35.598 3 24 3C12.402 3 3 12.402 3 24C3 35.598 12.402 45 24 45Z" stroke="#938784" stroke-miterlimit="10"/>
<path d="M6 24H0" stroke="#938784" stroke-miterlimit="10"/>
<path d="M48 24H42" stroke="#938784" stroke-miterlimit="10"/>
<path d="M24 6V0" stroke="#938784" stroke-miterlimit="10"/>
<path d="M24 48V42" stroke="#938784" stroke-miterlimit="10"/>
<path d="M6 24H0" stroke="#938784" stroke-miterlimit="10"/>
<path d="M48 24H42" stroke="#938784" stroke-miterlimit="10"/>
<path d="M24 6V0" stroke="#938784" stroke-miterlimit="10"/>
<path d="M24 48V42" stroke="#938784" stroke-miterlimit="10"/>
<path d="M29 20C29 22.8 26.8 25 24 25" stroke="#938784" stroke-miterlimit="10"/>
<path d="M12 36V33.5C12 31.4 13.3 29.5 15.3 28.8L21 27.1V24C19.7 23.1 19 21.6 19 20V17.2C19 14.6 20.9 12.3 23.5 12C26.2 11.7 28.7 13.7 29 16.5C29 16.7 29 16.8 29 17V20C29 21.6 28.3 23 27 24V27.1L32.7 28.8C34.7 29.5 36 31.4 36 33.5V36" stroke="#938784" stroke-linecap="round" stroke-linejoin="round"/>
</svg>
