<svg width="48" height="42" viewBox="0 0 48 42" fill="none" xmlns="http://www.w3.org/2000/svg">
<path d="M5 17V19L7 21H41L43 19V17H5Z" stroke="#938784" stroke-miterlimit="10"/>
<path d="M39.1 1H5C2.8 1 1 2.8 1 5V21L5 25H43L47 21V5C47 2.8 45.2 1 43 1" stroke="#938784" stroke-miterlimit="10" stroke-linecap="round"/>
<path d="M20 7H22" stroke="#938784" stroke-miterlimit="10"/>
<path d="M24 7H26" stroke="#938784" stroke-miterlimit="10"/>
<path d="M28 7H30" stroke="#938784" stroke-miterlimit="10"/>
<path d="M36 13H44" stroke="#938784" stroke-miterlimit="10"/>
<path d="M5 41C5 40.4 4.7 39.7 4.3 39.3L3.7 38.7C3.3 38.3 3 37.6 3 37C3 36.4 3.3 35.7 3.7 35.3L4.3 34.7C4.7 34.3 5 33.6 5 33C5 32.4 4.7 31.7 4.3 31.3L3.7 30.7C3.3 30.3 3 29.6 3 29" stroke="#938784" stroke-miterlimit="10" stroke-linecap="round"/>
<path d="M10 41C10 40.4 9.7 39.7 9.3 39.3L8.7 38.7C8.3 38.3 8 37.6 8 37C8 36.4 8.3 35.7 8.7 35.3L9.3 34.7C9.7 34.3 10 33.6 10 33C10 32.4 9.7 31.7 9.3 31.3L8.7 30.7C8.3 30.3 8 29.6 8 29" stroke="#938784" stroke-miterlimit="10" stroke-linecap="round"/>
<path d="M15 41C15 40.4 14.7 39.7 14.3 39.3L13.7 38.7C13.3 38.3 13 37.6 13 37C13 36.4 13.3 35.7 13.7 35.3L14.3 34.7C14.8 34.2 15 33.6 15 33C15 32.4 14.7 31.7 14.3 31.3L13.7 30.7C13.3 30.3 13 29.6 13 29" stroke="#938784" stroke-miterlimit="10" stroke-linecap="round"/>
<path d="M20 41C20 40.4 19.7 39.7 19.3 39.3L18.7 38.7C18.3 38.3 18 37.6 18 37C18 36.4 18.3 35.7 18.7 35.3L19.3 34.7C19.8 34.2 20 33.6 20 33C20 32.4 19.7 31.7 19.3 31.3L18.7 30.7C18.3 30.3 18 29.6 18 29" stroke="#938784" stroke-miterlimit="10" stroke-linecap="round"/>
<path d="M25 41C25 40.4 24.7 39.7 24.3 39.3L23.7 38.7C23.3 38.3 23 37.6 23 37C23 36.4 23.3 35.7 23.7 35.3L24.3 34.7C24.8 34.2 25 33.6 25 33C25 32.4 24.7 31.7 24.3 31.3L23.7 30.7C23.3 30.3 23 29.6 23 29" stroke="#938784" stroke-miterlimit="10" stroke-linecap="round"/>
<path d="M30 41C30 40.4 29.7 39.7 29.3 39.3L28.7 38.7C28.3 38.3 28 37.6 28 37C28 36.4 28.3 35.7 28.7 35.3L29.3 34.7C29.8 34.2 30 33.6 30 33C30 32.4 29.7 31.7 29.3 31.3L28.7 30.7C28.3 30.3 28 29.6 28 29" stroke="#938784" stroke-miterlimit="10" stroke-linecap="round"/>
<path d="M35 41C35 40.4 34.7 39.7 34.3 39.3L33.7 38.7C33.3 38.3 33 37.6 33 37C33 36.4 33.3 35.7 33.7 35.3L34.3 34.7C34.8 34.2 35 33.6 35 33C35 32.4 34.7 31.7 34.3 31.3L33.7 30.7C33.3 30.3 33 29.6 33 29" stroke="#938784" stroke-miterlimit="10" stroke-linecap="round"/>
<path d="M40 41C40 40.4 39.7 39.7 39.3 39.3L38.7 38.7C38.3 38.3 38 37.6 38 37C38 36.4 38.3 35.7 38.7 35.3L39.3 34.7C39.8 34.2 40 33.6 40 33C40 32.4 39.7 31.7 39.3 31.3L38.7 30.7C38.3 30.3 38 29.6 38 29" stroke="#938784" stroke-miterlimit="10" stroke-linecap="round"/>
<path d="M45 41C45 40.4 44.7 39.7 44.3 39.3L43.7 38.7C43.3 38.3 43 37.6 43 37C43 36.4 43.3 35.7 43.7 35.3L44.3 34.7C44.8 34.2 45 33.6 45 33C45 32.4 44.7 31.7 44.3 31.3L43.7 30.7C43.3 30.3 43 29.6 43 29" stroke="#938784" stroke-miterlimit="10" stroke-linecap="round"/>
<path d="M34 13H4" stroke="#938784" stroke-miterlimit="10"/>
</svg>
