<svg width="48" height="48" viewBox="0 0 48 48" fill="none" xmlns="http://www.w3.org/2000/svg">
<path d="M31.7 25.9477L29.5 19.3477" stroke="#938784" stroke-miterlimit="10" stroke-linecap="round"/>
<path d="M35.1998 36.0476L32.7998 29.2476" stroke="#938784" stroke-miterlimit="10" stroke-linecap="round"/>
<path d="M28.6003 16.0474L25.4003 7.34744C24.9003 5.64744 23.0003 4.64744 21.3003 5.14744C21.2003 5.14744 21.1003 5.24744 21.0003 5.24744C19.5003 5.94744 18.7003 7.64744 19.2003 9.24744L31.0003 44.7474V47.0474H27.0003V45.3474L15.3003 10.4474C14.1003 6.74744 16.1003 2.74744 19.8003 1.44744C23.6003 0.0474415 27.7003 2.04744 29.1003 5.84744C29.1003 5.94744 29.2003 6.04744 29.2003 6.14744L42.0003 44.7474V47.0474H38.0003V45.3474L36.1003 39.0474" stroke="#938784" stroke-miterlimit="10" stroke-linecap="round"/>
<path d="M22 16.0474H28.4" stroke="#938784" stroke-miterlimit="10" stroke-linecap="round"/>
<path d="M25 26.0474H31.7" stroke="#938784" stroke-miterlimit="10" stroke-linecap="round"/>
<path d="M29 36.0474H35" stroke="#938784" stroke-miterlimit="10" stroke-linecap="round"/>
<path d="M41 47.0474H48" stroke="#938784" stroke-miterlimit="10"/>
<path d="M12.7998 36.0474L18.2998 20.5474" stroke="#938784" stroke-miterlimit="10" stroke-linecap="round"/>
<path d="M16.2 13.7476L6 44.7476V47.0476H10V45.3476L11.9 39.0476" stroke="#938784" stroke-miterlimit="10" stroke-linecap="round"/>
<path d="M21.7 30.5474L17 44.7474V47.0474H21V45.3474L24 36.5474" stroke="#938784" stroke-miterlimit="10" stroke-linecap="round"/>
<path d="M19 36.0474H13" stroke="#938784" stroke-miterlimit="10" stroke-linecap="round"/>
<path d="M7 47.0474H0" stroke="#938784" stroke-miterlimit="10"/>
</svg>
