<svg width="48" height="48" viewBox="0 0 48 48" fill="none" xmlns="http://www.w3.org/2000/svg">
<path d="M26 47V13.5C26 6.6 20.4 1 13.5 1C6.6 1 1 6.6 1 13.5V47H47V14H1" stroke="#938784" stroke-miterlimit="10"/>
<path d="M43 18H30V43H43V18Z" stroke="#938784" stroke-miterlimit="10"/>
<path d="M42.8002 30.2002H30.2002" stroke="#938784" stroke-miterlimit="10"/>
<path d="M13.5002 13.8L4.7002 5" stroke="#938784" stroke-miterlimit="10"/>
<path d="M13.5 13.8L22.3 5" stroke="#938784" stroke-miterlimit="10"/>
<path d="M13.5 1V14" stroke="#938784" stroke-miterlimit="10"/>
<path d="M1.09961 34.3999L7.99961 27.3999L19.9996 38.9999" stroke="#938784" stroke-miterlimit="10"/>
<path d="M12.4004 31.9999L17.0004 27.3999L26.0004 36.3999" stroke="#938784" stroke-miterlimit="10"/>
<path d="M23 39H12" stroke="#938784" stroke-miterlimit="10" stroke-linecap="round"/>
<path d="M9.5 43H1.5" stroke="#938784" stroke-miterlimit="10" stroke-linecap="round"/>
<path d="M12 25C13.6569 25 15 23.6569 15 22C15 20.3431 13.6569 19 12 19C10.3431 19 9 20.3431 9 22C9 23.6569 10.3431 25 12 25Z" stroke="#938784" stroke-miterlimit="10"/>
</svg>
