<svg width="48" height="48" viewBox="0 0 48 48" fill="none" xmlns="http://www.w3.org/2000/svg">
<path d="M7 38H5V42C7.2 42 9 43.8 9 46V48" stroke="#938784" stroke-miterlimit="10"/>
<path d="M7 38H35" stroke="#938784" stroke-miterlimit="10"/>
<path d="M37 38H43V42C40.8 42 39 43.8 39 46V48" stroke="#938784" stroke-miterlimit="10"/>
<path d="M43 42H11" stroke="#938784" stroke-miterlimit="10" stroke-linecap="round"/>
<path d="M14 48V47C14 45.9 14.9 45 16 45C17.1 45 18 45.9 18 47V48" stroke="#938784" stroke-miterlimit="10"/>
<path d="M22 48V47C22 45.9 22.9 45 24 45C25.1 45 26 45.9 26 47V48" stroke="#938784" stroke-miterlimit="10"/>
<path d="M30 48V47C30 45.9 30.9 45 32 45C33.1 45 34 45.9 34 47V48" stroke="#938784" stroke-miterlimit="10"/>
<path d="M5 34H43" stroke="#938784" stroke-miterlimit="10" stroke-linecap="round"/>
<path d="M7 34V38" stroke="#938784" stroke-miterlimit="10"/>
<path d="M41 34V38" stroke="#938784" stroke-miterlimit="10"/>
<path d="M14.3 27.1V26.2C14.3 24.8 13.1 23.6 11.7 23.6H9" stroke="#938784" stroke-miterlimit="10"/>
<path d="M9 16.8H12.5" stroke="#938784" stroke-miterlimit="10"/>
<path d="M9 30V34H13V30" stroke="#938784" stroke-miterlimit="10"/>
<path d="M17 26H31" stroke="#938784" stroke-miterlimit="10"/>
<path d="M33.7002 27.1V26.2C33.7002 24.8 34.9002 23.6 36.3002 23.6H38.9002" stroke="#938784" stroke-miterlimit="10"/>
<path d="M38.9998 30V22.1C38.9998 20.9 38.3998 19.9 37.3998 19.2L36.2998 18.5L33.9998 12.4C33.1998 10.3 31.1998 9 28.9998 9H18.7998C16.5998 9 14.5998 10.3 13.7998 12.4L11.4998 18.5L10.3998 19.2C9.3998 19.8 8.7998 20.9 8.7998 22.1V30H38.9998Z" stroke="#938784" stroke-miterlimit="10"/>
<path d="M39 16.8H35.5" stroke="#938784" stroke-miterlimit="10"/>
<path d="M39 30V34H35V30" stroke="#938784" stroke-miterlimit="10"/>
<path d="M33.5994 20.2H32.7994L24.8994 19.3H23.0994L15.1994 20.2H14.3994" stroke="#938784" stroke-miterlimit="10" stroke-linecap="round"/>
<path d="M24 0V3" stroke="#938784" stroke-miterlimit="10"/>
<path d="M17.7998 0.899994L18.5998 3.79999" stroke="#938784" stroke-miterlimit="10"/>
<path d="M12 3.3L13.5 5.8" stroke="#938784" stroke-miterlimit="10"/>
<path d="M7 7.10001L9.2 9.20001" stroke="#938784" stroke-miterlimit="10"/>
<path d="M3.2002 12L5.8002 13.5" stroke="#938784" stroke-miterlimit="10"/>
<path d="M0.799805 17.8L3.6998 18.6" stroke="#938784" stroke-miterlimit="10"/>
<path d="M47.1998 30.2L44.2998 29.5" stroke="#938784" stroke-miterlimit="10"/>
<path d="M0 24H3" stroke="#938784" stroke-miterlimit="10"/>
<path d="M48 24H45" stroke="#938784" stroke-miterlimit="10"/>
<path d="M0.799805 30.2L3.6998 29.5" stroke="#938784" stroke-miterlimit="10"/>
<path d="M47.1998 17.8L44.2998 18.6" stroke="#938784" stroke-miterlimit="10"/>
<path d="M44.8002 12L42.2002 13.5" stroke="#938784" stroke-miterlimit="10"/>
<path d="M40.9998 7.10001L38.7998 9.20001" stroke="#938784" stroke-miterlimit="10"/>
<path d="M36 3.3L34.5 5.8" stroke="#938784" stroke-miterlimit="10"/>
<path d="M30.2004 0.899994L29.4004 3.79999" stroke="#938784" stroke-miterlimit="10"/>
</svg>
