<svg width="56" height="56" viewBox="0 0 56 56" fill="none" xmlns="http://www.w3.org/2000/svg">
<g filter="url(#filter0_d)">
<path d="M42.1 43H33.9L33 47V49H43V47L42.1 43Z" stroke="white" stroke-miterlimit="10"/>
<path d="M42 44V30L41 27H35L34 30V44" stroke="white" stroke-miterlimit="10"/>
<path d="M41 5L39 3H37L35 5V27H41V5Z" stroke="white" stroke-miterlimit="10"/>
<path d="M35 5H5V9H35V5Z" stroke="white" stroke-miterlimit="10"/>
<path d="M51 5H41V9H51V5Z" stroke="white" stroke-miterlimit="10"/>
<path d="M45 9V15H51V9" stroke="white" stroke-miterlimit="10"/>
<path d="M34 37H42" stroke="white" stroke-miterlimit="10"/>
<path d="M34 31H42" stroke="white" stroke-miterlimit="10"/>
<path d="M35 21H41" stroke="white" stroke-miterlimit="10"/>
<path d="M35 15H41" stroke="white" stroke-miterlimit="10"/>
<path d="M35 9H41" stroke="white" stroke-miterlimit="10"/>
<path d="M23.3 19.4L24.2 17.5C23.4 16.7 23.4 16.7 22.5 15.8L20.6 16.7C19.9 16.4 19.6 16.3 18.9 16L18.6 14C17.4 14 16.6 14 15.4 14L15.1 16L13.4 16.7L11.5 15.8C10.7 16.6 10.7 16.6 9.8 17.5L10.7 19.4C10.4 20.1 10.3 20.4 10 21.1L8 21.8C8 23 8 23 8 24.2L10 24.9L10.7 26.6L9.8 28.5L11.5 30.2L13.4 29.3C14.1 29.6 14.4 29.7 15.1 30L15.8 32H18.2L18.9 30L20.6 29.3L22.5 30.2C23.3 29.4 23.3 29.4 24.2 28.5L23.3 26.6C23.6 25.9 23.7 25.6 24 24.9L26 24.2C26 23 26 23 26 21.8L24 21.1L23.3 19.4Z" stroke="white" stroke-miterlimit="10"/>
<path d="M17 24.5C17.8284 24.5 18.5 23.8284 18.5 23C18.5 22.1716 17.8284 21.5 17 21.5C16.1716 21.5 15.5 22.1716 15.5 23C15.5 23.8284 16.1716 24.5 17 24.5Z" stroke="white" stroke-miterlimit="10"/>
<path d="M29 49V31H26" stroke="white" stroke-miterlimit="10"/>
<path d="M11 35V37" stroke="white" stroke-miterlimit="10"/>
<path d="M11 39V41" stroke="white" stroke-miterlimit="10"/>
<path d="M11 43V45" stroke="white" stroke-miterlimit="10"/>
<path d="M15 35V37" stroke="white" stroke-miterlimit="10"/>
<path d="M15 39V41" stroke="white" stroke-miterlimit="10"/>
<path d="M23 35V37" stroke="white" stroke-miterlimit="10"/>
<path d="M23 39V41" stroke="white" stroke-miterlimit="10"/>
<path d="M23 43V45" stroke="white" stroke-miterlimit="10"/>
<path d="M19 35V37" stroke="white" stroke-miterlimit="10"/>
<path d="M19 39V41" stroke="white" stroke-miterlimit="10"/>
<path d="M19 48V44H15V48" stroke="white" stroke-miterlimit="10"/>
<path d="M17 14V9.3" stroke="white" stroke-miterlimit="10"/>
<path d="M4 49H52" stroke="white" stroke-miterlimit="10"/>
<path d="M5 49V31H8" stroke="white" stroke-miterlimit="10"/>
</g>
<defs>
<filter id="filter0_d" x="0" y="0.5" width="56" height="55" filterUnits="userSpaceOnUse" color-interpolation-filters="sRGB">
<feFlood flood-opacity="0" result="BackgroundImageFix"/>
<feColorMatrix in="SourceAlpha" type="matrix" values="0 0 0 0 0 0 0 0 0 0 0 0 0 0 0 0 0 0 127 0"/>
<feOffset dy="2"/>
<feGaussianBlur stdDeviation="2"/>
<feColorMatrix type="matrix" values="0 0 0 0 0 0 0 0 0 0 0 0 0 0 0 0 0 0 0.3 0"/>
<feBlend mode="normal" in2="BackgroundImageFix" result="effect1_dropShadow"/>
<feBlend mode="normal" in="SourceGraphic" in2="effect1_dropShadow" result="shape"/>
</filter>
</defs>
</svg>
