<svg width="121" height="92" viewBox="0 0 121 92" fill="none" xmlns="http://www.w3.org/2000/svg">
<path fill-rule="evenodd" clip-rule="evenodd" d="M1.14762 60.9415H19.8921C19.1271 61.9593 18.617 62.7226 18.2345 63.2315C17.8519 63.7404 17.4694 64.7583 16.9593 65.9033L16.8318 66.285C16.0667 64.631 15.3016 63.6132 14.5366 63.1043C13.7715 62.5954 12.4963 62.341 10.5836 62.341H9.56353H7.77834H7.14077V70.8651H8.16088V63.3588H8.67093C9.43601 63.3588 10.2011 63.3588 11.0937 63.3588C13.5165 63.3588 15.0466 63.9949 15.6842 65.2672C15.0466 64.631 14.409 64.2494 13.7715 64.1221C13.1339 63.8677 11.9863 63.8677 10.5836 63.8677C10.0736 63.8677 9.43601 63.8677 8.67093 63.9949V70.9924H11.4762L14.409 67.9389V75.5725L11.3487 72.6463H7.26828V81.6794L9.56353 83.9695H0.637568L3.57038 81.6794V73.7913C2.67779 73.7913 1.78519 74.173 1.14762 74.8091L0.765082 74.4275C1.40265 73.6641 2.42276 73.2824 3.57038 73.2824V72.3918C3.31536 72.3918 3.18784 72.3918 3.06033 72.3918C1.91271 72.3918 1.02011 72.9008 0.127514 73.7913L0 73.5369C0.510055 72.0102 1.78519 71.1196 3.57038 70.9924V63.3588L1.14762 60.9415ZM21.2948 62.0865L20.9122 61.832C19.1271 63.6132 18.1069 65.5216 17.5969 67.43L17.9794 67.6845C18.4895 65.9033 19.5096 63.9949 21.2948 62.0865ZM15.6842 68.4478L15.1741 68.1934V75.9542L15.6842 76.2086V68.4478ZM12.4963 73.9186L11.9863 73.4097H8.28839V81.8066L10.9662 84.9873H1.02011L1.53016 85.4962H11.9863L8.79844 81.5522V73.7913H12.4963V73.9186ZM41.952 60.9415L38.7642 63.486V75.1908C38.7642 77.3537 38.6367 78.8804 38.5091 79.771C38.3816 80.6616 38.1266 81.4249 37.7441 82.0611C36.7239 83.5878 34.6837 84.3511 31.7509 84.3511C28.5631 84.3511 26.3953 83.5878 25.1202 82.0611C24.1001 80.7888 23.59 78.4987 23.59 75.0636V63.1043L21.1673 60.9415H29.7107L27.2879 63.3588V75.1908V77.9898C27.2879 79.771 27.6705 81.0433 28.4356 81.8066C29.2006 82.57 30.4758 82.9516 32.261 82.9516C34.1737 82.9516 35.5763 82.3155 36.3414 81.1705C36.979 80.2799 37.234 78.2443 37.234 75.1908L37.3615 63.486L34.5562 60.9415H41.952ZM42.4621 62.0865L42.207 61.7048L39.5292 63.9949V75.5725C39.5292 79.0076 39.2742 81.2977 38.6367 82.4427C37.6165 84.4784 35.3213 85.6234 32.0059 85.6234C29.7107 85.6234 27.798 85.2417 26.2678 84.3511L25.6303 83.9695L25.5027 83.8422C27.0329 85.3689 29.2006 86.0051 32.1335 86.0051C35.5763 86.0051 37.8716 84.86 39.0192 82.57C39.6568 81.4249 39.9118 79.0076 39.9118 75.4453V64.2494L42.4621 62.0865ZM30.3483 61.832L30.0932 61.4504L28.053 63.486V76.972C28.053 78.6259 28.308 79.771 28.6906 80.6616C29.0731 81.4249 29.7107 82.0611 30.7308 82.4427V82.3155C29.9657 81.6794 29.4557 81.1705 29.2006 80.6616L28.6906 78.3715V77.0992V63.7404L30.3483 61.832ZM60.569 61.0687C59.9314 61.9593 59.4214 62.8499 59.0388 63.7404C58.2738 65.5216 57.7637 66.6667 57.6362 67.0483L57.5087 67.1756C57.5087 67.0483 57.3812 66.9211 57.3812 66.9211C56.9986 65.9033 56.7436 65.1399 56.4886 64.631C56.2335 64.2494 55.9785 63.8677 55.4685 63.486C54.3208 62.4682 53.1732 62.0865 51.7706 62.0865C50.4954 62.0865 49.3478 62.4682 48.5827 63.1043C47.6901 63.8677 47.3076 64.7583 47.3076 65.7761C47.3076 67.8117 48.8377 69.2112 51.8981 69.8473L54.9584 70.6107C59.2939 71.6285 61.4616 73.9186 61.4616 77.4809C61.4616 79.5165 60.6965 81.0433 59.2939 82.4427C57.7637 83.8422 55.9785 84.4784 53.8108 84.4784C52.4081 84.4784 50.878 84.2239 49.2203 83.8422L47.0526 83.3333C46.16 83.0789 45.5224 83.0789 44.8848 83.0789C44.1197 83.0789 43.3547 83.3333 42.5896 83.715L42.4621 83.4605C43.9922 81.1705 45.0123 79.1348 45.6499 77.0992L46.0324 77.2265C46.2875 79.1348 47.0526 80.5343 48.3277 81.6794C49.6028 82.6972 51.2605 83.2061 53.3007 83.2061C54.9584 83.2061 56.2335 82.8244 57.1261 82.0611C58.0187 81.2977 58.5288 80.2799 58.5288 79.0076C58.5288 77.6081 57.8912 76.3359 56.4886 75.4453C55.596 74.8091 53.5558 74.173 50.6229 73.5369C48.3277 73.1552 46.67 72.3918 45.6499 71.374C44.6298 70.3562 44.1197 68.9567 44.1197 67.0483C44.1197 65.1399 44.7573 63.6132 46.16 62.4682C47.5626 61.3231 49.3478 60.687 51.5155 60.687C52.9182 60.687 54.5759 60.9415 56.4886 61.4504C57.3812 61.7048 58.0187 61.832 58.4013 61.832C59.0388 61.832 59.6764 61.5776 60.314 61.1959L60.569 61.0687ZM61.7166 61.832L61.2066 61.5776V61.832L59.9314 64.2494C59.2939 65.5216 58.7838 66.5394 58.4013 67.3028V67.43L58.7838 67.5572L58.9113 67.43C59.0388 67.1756 59.5489 66.285 60.314 64.5038C60.6965 63.7404 61.0791 62.9771 61.5891 62.0865L61.7166 61.832ZM56.4886 65.5216L56.6161 65.3944C56.2335 64.631 55.7235 63.9949 54.9584 63.486C54.1933 63.1043 53.3007 62.8499 52.2806 62.8499C51.2605 62.8499 50.3679 63.1043 49.6028 63.7404C48.9653 64.3766 48.5827 65.1399 48.5827 66.0305C48.5827 67.43 49.3478 68.4478 51.0055 69.084L51.133 68.9567L51.0055 68.8295C49.7303 67.9389 49.0928 66.9211 49.0928 66.0305C49.0928 65.2672 49.3478 64.5038 49.9854 63.9949C50.6229 63.486 51.388 63.2315 52.2806 63.2315C53.6833 63.3588 55.0859 64.1221 56.4886 65.5216ZM60.569 72.6463C61.8441 74.173 62.6092 75.6997 62.6092 77.6081C62.6092 79.771 61.7166 81.6794 60.0589 83.2061C58.4013 84.7328 56.3611 85.4962 53.9383 85.4962C52.6632 85.4962 51.5155 85.3689 50.3679 85.1145L47.5626 84.4784C46.67 84.2239 45.7774 84.0967 45.1399 84.0967C44.5023 84.0967 43.8647 84.2239 43.2271 84.6056L43.4822 85.1145C44.1197 84.86 44.6298 84.7328 45.3949 84.7328C46.16 84.7328 46.925 84.86 47.5626 84.9873L50.4954 85.7506C51.5155 86.0051 52.6632 86.1323 54.0658 86.1323C56.6161 86.1323 58.7838 85.3689 60.569 83.715C62.3542 82.0611 63.2468 80.1527 63.2468 77.8626C63.1193 75.5725 62.2267 73.9186 60.569 72.6463ZM47.6901 77.8626L47.1801 77.9898C47.6901 80.4071 48.9653 81.9338 51.2605 82.6972V82.57C49.3478 81.5522 48.2002 80.0254 47.6901 77.8626ZM45.5224 72.0102C45.6499 72.7735 46.16 73.4097 47.0526 73.7913C47.9452 74.173 49.7303 74.8091 52.2806 75.3181C54.0658 75.6997 55.3409 76.0814 55.9785 76.3359C56.6161 76.5903 57.2536 77.0992 57.7637 77.7354L57.8912 77.6081C57.6362 76.8448 57.1261 76.3359 56.4886 75.9542C55.851 75.5725 54.5759 75.1908 52.5356 74.6819L49.6028 73.9186C47.6901 73.4097 46.5425 72.9008 46.16 72.1374L45.5224 72.0102ZM64.1394 60.9415H72.6828L70.26 63.3588V82.1883L72.5553 84.0967H64.1394L66.6897 82.0611V63.2315L64.1394 60.9415ZM73.5754 61.9593L73.3204 61.5776L71.2802 63.6132V82.3155L73.7029 84.9873H64.9045L65.4145 85.4962H74.8505L71.7902 82.0611V63.7404L73.5754 61.9593ZM89.5146 64.8855L89.2596 64.7583C88.112 64.1221 87.0919 63.7404 86.0717 63.7404C82.8839 63.7404 81.3537 66.7939 81.3537 73.028C81.3537 77.6081 82.3738 80.6616 84.2866 82.0611L84.159 82.1883C83.0114 81.2977 82.1188 80.2799 81.6088 78.8804C81.0987 77.4809 80.8437 75.5725 80.8437 73.2824C80.8437 66.6667 82.6289 63.2315 86.0717 63.2315C87.6019 63.3588 88.7495 63.8677 89.5146 64.8855ZM85.6892 60.687C82.6289 60.687 80.2061 61.7048 78.4209 63.8677C76.6357 66.0305 75.7431 68.9567 75.7431 72.5191C75.7431 76.7175 77.0183 80.0254 79.6961 82.1883C81.4813 83.715 83.5215 84.3511 85.8167 84.3511C88.7495 84.3511 91.0448 83.3333 92.83 81.1705C94.6152 79.1348 95.3802 76.3359 95.3802 72.7735C95.3802 69.084 94.4876 66.1578 92.7025 63.8677C90.9173 61.832 88.622 60.687 85.6892 60.687ZM85.6892 62.2137C81.6088 62.2137 79.5686 65.7761 79.5686 72.9008C79.5686 79.5165 81.6088 82.8244 85.6892 82.8244C87.6019 82.8244 89.0046 81.9338 90.0247 80.1527C91.0448 78.3715 91.5548 75.827 91.5548 72.5191C91.5548 68.7023 91.0448 66.0305 90.1522 64.5038C88.877 62.9771 87.4744 62.2137 85.6892 62.2137ZM91.4273 61.5776V61.832C93.085 62.8499 94.3601 64.2494 95.2527 66.285C96.1453 68.1934 96.5279 70.6107 96.5279 73.1552C96.5279 76.7175 95.5078 79.6438 93.5951 81.9338C91.6824 84.2239 89.1321 85.3689 86.0717 85.3689C83.7765 85.3689 81.9913 84.86 80.4611 83.715V83.8422C82.2463 85.2417 84.159 85.8779 86.1993 85.8779C89.3871 85.8779 91.9374 84.7328 93.9776 82.3155C95.8903 79.8982 96.9104 76.8448 96.9104 72.9008C96.9104 70.229 96.4004 67.9389 95.3802 65.9033C94.4876 63.8677 93.085 62.4682 91.4273 61.5776ZM119.225 60.9415C117.823 61.7048 116.93 62.341 116.548 62.8499C115.91 63.7404 115.655 65.1399 115.655 67.0483V68.1934V84.0967H112.595L104.051 67.5572V77.3537V78.117L104.306 80.6616C104.561 81.8066 105.071 82.6972 105.964 83.3333L106.091 83.4605C104.434 82.9516 103.669 81.1705 103.669 78.117V76.4631V66.5394L102.649 64.631V75.0636C102.649 78.3715 102.904 80.5343 103.286 81.5522C103.669 82.57 104.689 83.3333 106.346 83.8422L107.877 85.4962H98.058L97.803 84.9873H106.856L105.964 83.9695H97.548C99.0781 83.4605 99.9707 82.6972 100.481 81.8066C100.991 80.916 101.246 79.3893 101.246 77.2265V62.9771L98.8231 60.9415H108.004L105.454 62.5954L114.252 79.6438V77.4809L106.729 62.8499L109.279 61.1959L109.662 61.5776L107.367 63.1043L114.252 76.5903V68.1934V67.1756C114.252 65.1399 114.125 63.7404 113.742 62.9771C113.36 62.2137 112.595 61.5776 111.192 60.9415H119.225ZM119.863 62.2137C118.588 62.4682 117.823 62.8499 117.313 63.486C116.93 64.1221 116.675 65.3944 116.675 67.0483V84.9873H113.105L113.36 85.4962H117.185V66.9211C117.185 65.5216 117.313 64.5038 117.695 63.9949C118.078 63.3588 118.715 62.9771 119.608 62.8499L119.863 62.2137Z" fill="#938784"/>
<path fill-rule="evenodd" clip-rule="evenodd" d="M56.3613 40.8397C57.3814 40.8397 58.5291 40.8397 59.5492 40.8397C60.5693 40.8397 61.7169 40.8397 62.737 40.8397C62.6095 41.8575 62.482 42.8753 62.3545 43.8931C62.227 44.9109 62.0994 45.9288 61.9719 46.9466C61.2068 46.9466 60.4418 46.9466 59.6767 46.9466C58.9116 46.9466 58.1465 46.9466 57.3814 46.9466C57.2539 45.9288 57.1264 44.9109 56.9989 43.8931C56.7439 42.8753 56.4888 41.8575 56.3613 40.8397Z" fill="#938784"/>
<path fill-rule="evenodd" clip-rule="evenodd" d="M57.126 23.9186C57.8911 23.9186 58.7837 23.9186 59.5487 23.9186C60.3138 23.9186 61.2064 23.9186 61.9715 23.9186C61.844 26.8448 61.7165 29.771 61.589 32.6972C61.4614 35.6234 61.3339 38.5496 61.2064 41.4758C60.5688 41.4758 60.0588 41.4758 59.4212 41.4758C58.7837 41.4758 58.2736 41.4758 57.636 41.4758C57.5085 38.5496 57.381 35.6234 57.2535 32.6972C57.2535 29.771 57.2535 26.8448 57.126 23.9186Z" fill="#938784"/>
<path fill-rule="evenodd" clip-rule="evenodd" d="M57.8916 12.4682C58.4017 12.4682 59.0392 12.4682 59.5493 12.4682C60.0593 12.4682 60.6969 12.4682 61.207 12.4682C61.0794 14.5038 61.0794 16.4122 60.9519 18.4478C60.8244 20.4835 60.8244 22.3919 60.6969 24.4275C60.3144 24.4275 59.9318 24.4275 59.5493 24.4275C59.1667 24.4275 58.7842 24.4275 58.4017 24.4275C58.2741 22.3919 58.2741 20.4835 58.1466 18.4478C58.0191 16.4122 58.0191 14.3766 57.8916 12.4682Z" fill="#938784"/>
<path fill-rule="evenodd" clip-rule="evenodd" d="M46.4151 46.3104H72.6829V4.19848H69.495V3.30789H73.0654H73.5755V3.68957V46.8193V47.201H73.0654H46.0325H45.5225V46.8193V3.68957V3.30789H46.0325H49.6029V4.19848H46.4151V46.3104Z" fill="#938784"/>
<path fill-rule="evenodd" clip-rule="evenodd" d="M69.4947 3.68957V0.890585H49.6026V3.68957H48.71V0.381679V0H49.22H70.0047H70.3873V0.381679V3.68957H69.4947Z" fill="#938784"/>
<path fill-rule="evenodd" clip-rule="evenodd" d="M45.7773 40.2036C47.9451 41.9848 49.7303 44.1476 50.7504 46.8194H49.0927C48.3276 45.1654 47.18 43.5115 45.7773 42.2392V40.2036Z" fill="#938784"/>
<path fill-rule="evenodd" clip-rule="evenodd" d="M45.7773 28.1171C50.2403 33.4606 53.3006 39.9491 54.5758 46.8194H53.0456C51.898 40.9669 49.4752 36.2596 45.7773 31.5522V28.1171Z" fill="#938784"/>
<path fill-rule="evenodd" clip-rule="evenodd" d="M45.7773 8.14249C52.9181 19.8473 56.871 33.0789 57.2536 46.8193H55.7234C55.3409 34.3511 51.898 23.4097 45.7773 12.5954V8.14249Z" fill="#938784"/>
<path fill-rule="evenodd" clip-rule="evenodd" d="M50.2405 0.508911C56.4887 11.9593 59.8041 24.8092 59.8041 37.7863H58.2739C58.2739 25.0636 55.0861 14.2494 48.8379 3.05344V0.636138L50.2405 0.508911Z" fill="#938784"/>
<path fill-rule="evenodd" clip-rule="evenodd" d="M55.7238 0.381683C58.2741 8.1425 59.5492 16.1578 59.5492 24.3003H58.0191C58.0191 16.1578 56.2339 8.1425 53.6836 0.381683H55.7238Z" fill="#938784"/>
<path fill-rule="evenodd" clip-rule="evenodd" d="M73.3207 40.2036C71.153 41.9848 69.3678 44.1476 68.3477 46.8194H70.0053C70.7704 45.1654 71.918 43.5115 73.3207 42.2392V40.2036Z" fill="#938784"/>
<path fill-rule="evenodd" clip-rule="evenodd" d="M73.3199 28.1171C68.857 33.4606 65.7966 39.9491 64.5215 46.8194H66.0516C67.1993 40.9669 69.622 36.2596 73.3199 31.5522V28.1171Z" fill="#938784"/>
<path fill-rule="evenodd" clip-rule="evenodd" d="M73.32 8.14249C66.1792 19.8473 62.2263 33.0789 61.8438 46.8193H63.3739C63.7565 34.3511 67.1993 23.4097 73.32 12.5954V8.14249Z" fill="#938784"/>
<path fill-rule="evenodd" clip-rule="evenodd" d="M68.8575 0.508911C62.6093 11.9593 59.2939 24.8092 59.2939 37.7863H60.8241C60.8241 25.0636 64.0119 14.2494 70.2601 3.05344V0.636138L68.8575 0.508911Z" fill="#938784"/>
<path fill-rule="evenodd" clip-rule="evenodd" d="M63.3742 0.381683C60.824 8.1425 59.5488 16.1578 59.5488 24.3003H61.2065C61.2065 16.1578 62.9917 8.1425 65.542 0.381683H63.3742Z" fill="#938784"/>
<path fill-rule="evenodd" clip-rule="evenodd" d="M45.9051 46.9466C45.14 46.5649 44.3749 45.9288 43.7374 45.2926C42.0797 43.6387 41.0596 41.3486 41.0596 38.6769C41.0596 36.1323 42.0797 33.8423 43.7374 32.0611C44.3749 31.4249 45.14 30.916 45.9051 30.4071V31.4249C45.395 31.8066 44.885 32.1883 44.3749 32.57C42.8448 34.0967 41.9522 36.1323 41.9522 38.5496C41.9522 40.8397 42.8448 43.0026 44.3749 44.5293C44.885 45.0382 45.395 45.4199 45.9051 45.6743V46.9466Z" fill="#938784"/>
<path fill-rule="evenodd" clip-rule="evenodd" d="M45.9046 43.7659C44.502 42.4937 43.6094 40.7125 43.6094 38.6769C43.6094 36.6412 44.502 34.8601 45.9046 33.5878V43.7659Z" fill="#938784"/>
<path d="M46.0323 38.2952H41.5693V39.1857H46.0323V38.2952Z" fill="#938784"/>
<path fill-rule="evenodd" clip-rule="evenodd" d="M41.9523 36.0051L45.9052 37.0229V38.0407L41.6973 36.8957L41.9523 36.0051Z" fill="#938784"/>
<path fill-rule="evenodd" clip-rule="evenodd" d="M42.972 33.9695L45.9048 35.6234V36.6412L42.4619 34.7328L42.972 33.9695Z" fill="#938784"/>
<path fill-rule="evenodd" clip-rule="evenodd" d="M44.3753 32.1883L45.9055 33.715V34.86L43.8652 32.8244L44.3753 32.1883Z" fill="#938784"/>
<path fill-rule="evenodd" clip-rule="evenodd" d="M43.8652 44.6565L45.9055 42.4937V43.7659L44.3753 45.2926L43.8652 44.6565Z" fill="#938784"/>
<path fill-rule="evenodd" clip-rule="evenodd" d="M42.4619 42.7481L45.9048 40.8397V41.8575L42.972 43.5114L42.4619 42.7481Z" fill="#938784"/>
<path fill-rule="evenodd" clip-rule="evenodd" d="M41.6973 40.5853L45.9052 39.4402V40.3308L41.9523 41.4758L41.6973 40.5853Z" fill="#938784"/>
<path fill-rule="evenodd" clip-rule="evenodd" d="M41.4426 36.2596L34.3018 32.6972L33.6642 33.9695L41.4426 36.2596ZM34.3018 31.6794L42.0801 35.6234L42.4627 35.7507L42.3352 36.1323L42.0801 37.0229V37.4046L41.6976 37.2774L33.0267 34.6056L32.5166 34.4784L32.7716 33.9695L33.7917 31.8066L34.0468 31.425L34.3018 31.6794Z" fill="#938784"/>
<path fill-rule="evenodd" clip-rule="evenodd" d="M28.8185 36.6412L29.9661 33.4606L30.0936 33.0789H30.6037L41.9524 36.3868L42.335 36.514L42.0799 37.0229L41.8249 37.9135V38.1679H41.4424L29.201 37.1501H28.5635L28.8185 36.6412ZM30.7312 34.0967L29.9661 36.3868L41.1873 37.2774V37.1501L30.7312 34.0967Z" fill="#938784"/>
<path fill-rule="evenodd" clip-rule="evenodd" d="M25.2479 37.0229L24.9929 38.9313L41.1871 38.8041V38.1679L25.2479 37.0229ZM23.9728 39.313L24.3553 36.514V36.1323H24.7379L41.4422 37.2774H41.8247V37.659V39.0585V39.5674H41.3147L24.2278 39.6947H23.7178L23.9728 39.313Z" fill="#938784"/>
<path fill-rule="evenodd" clip-rule="evenodd" d="M26.0127 36.514L26.7778 33.9695V33.5878L27.2878 33.715L30.0931 34.6056L29.7106 35.4962L27.4153 34.7328L26.9053 36.7685L26.0127 36.514Z" fill="#938784"/>
<path fill-rule="evenodd" clip-rule="evenodd" d="M26.5235 39.313L26.651 41.4758L41.5701 39.4402L41.6976 40.3308L26.2684 42.3664H25.7584V41.9847L25.6309 39.313H26.5235Z" fill="#938784"/>
<path fill-rule="evenodd" clip-rule="evenodd" d="M28.9453 41.7303L29.3279 43.5115L31.2406 42.7481L31.6231 43.5115L29.0728 44.5293L28.5628 44.7837V44.2748L28.0527 41.8575L28.9453 41.7303Z" fill="#938784"/>
<path fill-rule="evenodd" clip-rule="evenodd" d="M31.4965 41.2214L32.3891 44.9109L41.8251 41.0941L42.0802 41.8575L32.2616 45.9288L31.7516 46.056L31.624 45.5471L30.7314 41.3486L31.4965 41.2214Z" fill="#938784"/>
<path fill-rule="evenodd" clip-rule="evenodd" d="M73.1934 46.9466C73.9584 46.5649 74.7235 45.9288 75.3611 45.2926C77.0188 43.6387 78.0389 41.3486 78.0389 38.6769C78.0389 36.1323 77.0188 33.8423 75.3611 32.0611C74.7235 31.4249 73.9584 30.916 73.1934 30.4071V31.4249C73.7034 31.8066 74.2135 32.1883 74.7235 32.57C76.2537 34.0967 77.1463 36.1323 77.1463 38.5496C77.1463 40.8397 76.2537 43.0026 74.7235 44.5293C74.2135 45.0382 73.7034 45.4199 73.1934 45.6743V46.9466Z" fill="#938784"/>
<path fill-rule="evenodd" clip-rule="evenodd" d="M73.1934 43.7659C74.596 42.4937 75.4886 40.7125 75.4886 38.6769C75.4886 36.6412 74.596 34.8601 73.1934 33.5878V43.7659Z" fill="#938784"/>
<path d="M77.6563 38.2952H73.1934V39.1857H77.6563V38.2952Z" fill="#938784"/>
<path fill-rule="evenodd" clip-rule="evenodd" d="M77.1463 36.0051L73.1934 37.0229V38.0407L77.4013 36.8957L77.1463 36.0051Z" fill="#938784"/>
<path fill-rule="evenodd" clip-rule="evenodd" d="M76.1262 33.9695L73.1934 35.6234V36.6412L76.6362 34.7328L76.1262 33.9695Z" fill="#938784"/>
<path fill-rule="evenodd" clip-rule="evenodd" d="M74.7235 32.1883L73.1934 33.715V34.86L75.3611 32.8244L74.7235 32.1883Z" fill="#938784"/>
<path fill-rule="evenodd" clip-rule="evenodd" d="M75.3611 44.6565L73.1934 42.4937V43.7659L74.7235 45.2926L75.3611 44.6565Z" fill="#938784"/>
<path fill-rule="evenodd" clip-rule="evenodd" d="M76.6362 42.7481L73.1934 40.8397V41.8575L76.1262 43.5114L76.6362 42.7481Z" fill="#938784"/>
<path fill-rule="evenodd" clip-rule="evenodd" d="M77.4013 40.5853L73.1934 39.4402V40.3308L77.1463 41.4758L77.4013 40.5853Z" fill="#938784"/>
<path fill-rule="evenodd" clip-rule="evenodd" d="M77.6559 36.2596L84.7966 32.6972L85.4342 33.9695L77.6559 36.2596ZM84.7966 31.6794L77.0183 35.6234L76.6357 35.7507L76.7633 36.1323L77.0183 37.0229L77.1458 37.4046L77.5283 37.2774L86.1993 34.6056L86.7093 34.4784L86.4543 33.9695L85.4342 31.9339L85.1792 31.5522L84.7966 31.6794Z" fill="#938784"/>
<path fill-rule="evenodd" clip-rule="evenodd" d="M90.2805 36.6412L89.1329 33.4606L89.0054 33.0789H88.6229L77.2741 36.3868L76.8916 36.514L77.0191 36.8957L77.2741 37.7863L77.4017 38.1679H77.7842L90.0255 37.1501H90.6631L90.2805 36.6412ZM88.3678 34.0967L89.1329 36.3868L77.9117 37.2774V37.1501L88.3678 34.0967Z" fill="#938784"/>
<path fill-rule="evenodd" clip-rule="evenodd" d="M93.8502 37.0229L94.1052 38.9313L77.911 38.8041V38.1679L93.8502 37.0229ZM95.1254 39.313L94.7428 36.514V36.1323H94.3603L77.656 37.2774H77.2734V37.659V39.0585V39.5674H77.7835L94.8703 39.6947H95.3804L95.1254 39.313Z" fill="#938784"/>
<path fill-rule="evenodd" clip-rule="evenodd" d="M93.0857 36.514L92.4482 33.9695L92.3207 33.5878L91.8106 33.715L89.1328 34.6056L89.3878 35.4962L91.6831 34.7328L92.1931 36.7685L93.0857 36.514Z" fill="#938784"/>
<path fill-rule="evenodd" clip-rule="evenodd" d="M92.5755 39.313L92.448 41.4758L77.5289 39.4402L77.4014 40.3308L92.8305 42.3664H93.3406V41.9847L93.4681 39.313H92.5755Z" fill="#938784"/>
<path fill-rule="evenodd" clip-rule="evenodd" d="M90.1524 41.7303L89.7699 43.5115L87.8572 42.7481L87.4746 43.5115L90.0249 44.5293L90.5349 44.7837V44.2748L91.045 41.8575L90.1524 41.7303Z" fill="#938784"/>
<path fill-rule="evenodd" clip-rule="evenodd" d="M87.6022 41.2214L86.7096 44.9109L77.2736 41.0941L77.0186 41.8575L86.9646 45.9288L87.3472 46.056L87.4747 45.5471L88.3673 41.3486L87.6022 41.2214Z" fill="#938784"/>
<path d="M119.735 46.4377H0V47.8371H119.735V46.4377Z" fill="#938784"/>
<path d="M119.735 48.7277H0V49.4911H119.735V48.7277Z" fill="#938784"/>
<path d="M119.735 90.5852H0V91.9847H119.735V90.5852Z" fill="#938784"/>
<path d="M119.735 89.0585H0V89.8219H119.735V89.0585Z" fill="#938784"/>
<path d="M2.67779 55.8524L2.55027 55.7252L1.40265 57.5064H0L1.78519 54.9618L0 52.5445H1.27514L2.67779 54.3257V52.5445H3.6979V54.3257L5.10055 52.5445H6.37568L4.59049 54.9618L6.37568 57.5064H5.10055L3.82541 55.7252L3.6979 55.8524V57.3791H2.67779V55.8524Z" fill="#938784"/>
<path d="M12.8792 57.3791H12.3691V52.5445H13.3893V55.4707L15.4295 52.5445H15.9395V57.3791H14.9194V54.5802L12.8792 57.3791Z" fill="#938784"/>
<path d="M23.0795 55.3435V54.4529H23.3346C23.4621 54.4529 23.5896 54.4529 23.7171 54.3257C23.8446 54.1985 23.8446 54.0712 23.8446 53.944C23.8446 53.8168 23.8446 53.6896 23.7171 53.5623C23.5896 53.4351 23.4621 53.4351 23.3346 53.4351C23.207 53.4351 22.952 53.5623 22.697 53.6896L22.3145 52.799C22.697 52.4173 23.0795 52.2901 23.4621 52.2901C23.8446 52.2901 24.2272 52.4173 24.4822 52.6718C24.7372 52.9262 24.8647 53.3079 24.8647 53.6896C24.8647 54.0712 24.7372 54.4529 24.3547 54.7074C24.8647 54.9618 25.1198 55.3435 25.1198 55.9796C25.1198 56.3613 24.9922 56.743 24.7372 57.1247C24.4822 57.3791 24.0996 57.5064 23.5896 57.5064C23.0795 57.5064 22.5695 57.3791 22.3145 56.9975L22.8245 56.1069C23.0795 56.3613 23.3346 56.4885 23.4621 56.4885C23.5896 56.4885 23.7171 56.4885 23.8446 56.3613C23.9721 56.2341 23.9721 56.1069 23.9721 55.9796C23.9721 55.8524 23.9721 55.7252 23.8446 55.598C23.7171 55.4707 23.5896 55.4707 23.4621 55.4707H23.0795V55.3435Z" fill="#938784"/>
<path d="M32.3883 54.3257H33.9184V52.5445H34.9385V57.3791H33.9184V55.3435H32.3883V57.3791H31.3682V52.5445H32.3883V54.3257Z" fill="#938784"/>
<path d="M42.5895 54.3257H42.8445C43.227 54.3257 43.6096 54.3257 43.8646 54.4529C44.1196 54.5801 44.2471 54.7074 44.3746 54.9618C44.5022 55.2163 44.6297 55.4707 44.6297 55.8524C44.6297 56.2341 44.5022 56.4885 44.3746 56.743C44.2471 56.9975 44.1196 57.1247 43.8646 57.2519C43.6096 57.3791 43.3545 57.3791 42.972 57.3791H41.5693V52.5445H42.5895V54.3257ZM42.5895 56.4885H42.8445C42.972 56.4885 43.0995 56.4885 43.227 56.4885C43.3545 56.4885 43.3545 56.3613 43.482 56.3613C43.482 56.2341 43.6096 56.1069 43.6096 55.9796C43.6096 55.598 43.3545 55.3435 42.972 55.3435H42.5895V56.4885Z" fill="#938784"/>
<path d="M58.7842 57.3791V52.5445H60.3143C60.8244 52.5445 61.2069 52.6718 61.3345 52.9262C61.462 53.1807 61.5895 53.4351 61.5895 53.8168C61.5895 54.3257 61.3345 54.5801 60.9519 54.8346C61.462 55.0891 61.717 55.4707 61.717 56.1069C61.717 56.4885 61.5895 56.743 61.462 56.8702C61.5895 57.1247 61.3345 57.2519 61.2069 57.2519C60.9519 57.3791 60.6969 57.3791 60.3143 57.3791H58.7842ZM59.8043 54.4529H60.1868C60.3143 54.4529 60.4419 54.4529 60.5694 54.3257C60.6969 54.1985 60.6969 54.0712 60.6969 53.944C60.6969 53.8168 60.6969 53.5623 60.5694 53.5623C60.4419 53.4351 60.3143 53.4351 60.1868 53.4351H60.0593H59.6768V54.4529H59.8043ZM59.8043 56.4885H60.3143C60.5694 56.4885 60.6969 56.4885 60.6969 56.3613C60.8244 56.2341 60.8244 56.1069 60.8244 55.9796C60.8244 55.8524 60.8244 55.7252 60.6969 55.598C60.5694 55.4707 60.4419 55.3435 60.1868 55.3435H59.8043V56.4885Z" fill="#938784"/>
<path d="M79.9515 53.5623L79.1864 54.0712C79.0589 53.8168 78.9314 53.6896 78.6764 53.6896C78.5489 53.5623 78.2938 53.5623 78.1663 53.5623C77.7838 53.5623 77.5288 53.6896 77.2737 53.944C77.0187 54.1985 76.8912 54.5801 76.8912 54.9618C76.8912 55.3435 77.0187 55.7252 77.2737 55.9796C77.5288 56.2341 77.7838 56.3613 78.1663 56.3613C78.6764 56.3613 78.9314 56.2341 79.1864 55.8524L79.9515 56.4885C79.569 57.1247 78.9314 57.5064 78.1663 57.5064C77.5288 57.5064 76.8912 57.2519 76.5087 56.743C76.1261 56.2341 75.8711 55.598 75.8711 54.9618C75.8711 54.4529 75.9986 54.0712 76.1261 53.6896C76.3811 53.3079 76.6362 52.9262 76.8912 52.799C77.2737 52.5445 77.6563 52.4173 78.0388 52.4173C78.4214 52.4173 78.8039 52.5445 79.0589 52.6718C79.569 52.9262 79.824 53.1807 79.9515 53.5623Z" fill="#938784"/>
<path d="M86.1992 52.5445H89.8971V53.6896H88.622V57.3791H87.6019V53.6896H86.1992V52.5445Z" fill="#938784"/>
<path d="M96.6556 57.3791H96.1455V52.5445H97.1656V55.4707L99.2058 52.5445H99.7159V57.3791H98.6958V54.5802L96.6556 57.3791Z" fill="#938784"/>
<path d="M109.789 57.3791H108.769L107.749 54.3257L106.729 57.3791H105.836L107.494 52.5445H108.131L109.789 57.3791Z" fill="#938784"/>
<path d="M119.991 55.3435H116.803C116.803 55.7252 116.93 55.9796 117.185 56.2341C117.44 56.4885 117.695 56.4885 117.95 56.4885C118.333 56.4885 118.588 56.3613 118.97 55.9796L119.863 56.4885C119.608 56.8702 119.353 57.1247 119.098 57.2519C118.843 57.3791 118.46 57.5064 118.078 57.5064C117.44 57.5064 116.93 57.2519 116.548 56.743C116.165 56.2341 115.91 55.598 115.91 54.9618C115.91 54.1985 116.165 53.5623 116.548 53.0534C116.93 52.5445 117.44 52.2901 118.078 52.2901C118.715 52.2901 119.226 52.5445 119.608 53.0534C119.991 53.5623 120.246 54.1985 120.246 54.9618L119.991 55.3435ZM118.97 54.3257C118.843 54.0712 118.715 53.8168 118.588 53.6896C118.333 53.5623 118.205 53.4351 117.95 53.4351C117.695 53.4351 117.44 53.5623 117.185 53.6896C117.058 53.8168 116.93 54.0712 116.803 54.3257H118.97Z" fill="#938784"/>
</svg>
