<svg width="147" height="46" viewBox="0 0 147 46" fill="none" xmlns="http://www.w3.org/2000/svg">
<g filter="url(#filter0_d)">
<path d="M44.6622 24.9875C40.3347 30.9785 35.1349 36.3078 29.2307 40.8034L29.2021 40.8245H24.9245L25.2026 40.6417C31.1164 36.8494 36.934 31.2541 42.0814 24.4286C47.4034 17.3572 49.5993 10.37 47.6779 6.58126C46.7689 4.79933 44.9866 3.86092 42.5269 3.85741C36.9019 3.85741 28.1078 8.60218 20.4687 15.8986H18.6435L18.8146 15.7299C27.787 6.78511 37.9606 1 44.7299 1C47.7635 1 49.9451 2.09657 51.0359 4.16318C53.2567 8.38076 50.8148 16.359 44.6622 24.9875ZM40.3347 24.3759C45.1613 17.6102 47.0042 11.5896 45.2611 8.27883C44.4127 6.66912 42.723 5.81858 40.3667 5.81858C35.5508 5.81858 28.4607 9.61791 21.8696 15.7334L21.6878 15.8986H23.6804C28.9205 11.3858 34.2533 8.66544 38.4133 8.66544C40.1671 8.66544 41.4433 9.34377 42.0921 10.6266C43.5179 13.4383 41.839 18.8193 37.9035 24.0069C30.2822 34.0482 20.8929 39.4713 15.9308 39.4713C14.3338 39.4713 13.161 38.9582 12.4374 37.9495C11.368 36.4557 11.4001 33.9639 12.5087 30.9202L12.6584 30.523L2 40.8385H21.6557C28.2397 37.6121 35.3904 31.3068 40.3347 24.3759Z" fill="white"/>
<path d="M33.6265 24.6289L28.308 29.8693H19.7742L21.2499 28.3756H27.7234L32.5714 23.5921L33.6265 24.6289ZM21.3747 21.891L13.2793 29.8693H15.3825L23.4743 21.891H21.3747ZM23.567 26.1332L22.0841 27.5953H27.3848L32.0189 23.0263L30.9495 21.9719L26.7681 26.1332H23.567ZM24.4938 22.0035L16.5089 29.8693H18.6121L25.5454 23.0368L24.4938 22.0035ZM26.679 23.0368L26.6005 23.1106L25.2638 24.4146L26.3118 25.4514L28.775 23.0368L25.303 19.6276H14.8656L13.3827 21.0932H24.6934L26.679 23.0368ZM25.6452 18.8192L29.3418 22.478L30.4112 21.4236L26.2405 17.3396H17.1755L15.6926 18.8052H25.6167L25.6452 18.8192Z" fill="white"/>
<path d="M72.171 34.0376C71.8747 33.7162 71.5093 33.464 71.1016 33.2996C70.6499 33.115 70.1645 33.0241 69.6757 33.0324C69.2644 33.0356 68.8563 33.1045 68.4673 33.2363C68.0533 33.3751 67.6767 33.6046 67.3658 33.9076C67.0138 34.2535 66.7404 34.6692 66.5637 35.1272C66.345 35.73 66.2411 36.3675 66.2571 37.0075C66.2357 37.6662 66.3396 38.3231 66.5637 38.9441C66.7338 39.3993 67.0069 39.8104 67.3622 40.1461C67.6757 40.4348 68.0545 40.6457 68.4673 40.7612C68.8696 40.874 69.2859 40.9308 69.7042 40.9299C70.2192 40.9268 70.7304 40.8438 71.2192 40.6838C71.749 40.504 72.2348 40.2166 72.6451 39.8403C72.46 39.6441 72.2852 39.4388 72.1211 39.2253C71.9642 39.0214 71.7895 38.8176 71.6006 38.6137C71.3249 38.8721 70.9934 39.0656 70.631 39.1796C70.3472 39.2765 70.0506 39.3322 69.7505 39.3447C69.4935 39.3499 69.2387 39.297 69.0055 39.1901C68.8038 39.0888 68.6254 38.9477 68.4815 38.7754C68.3466 38.5983 68.2463 38.3981 68.1856 38.1849C68.1217 37.956 68.0905 37.7194 68.093 37.482H73.0336V36.7158C73.0427 36.1985 72.9656 35.6832 72.8055 35.1904C72.6796 34.766 72.4633 34.373 72.171 34.0376ZM68.15 36.2413C68.1806 35.8055 68.3604 35.3929 68.6597 35.0709C68.7913 34.9335 68.9506 34.825 69.1275 34.7523C69.3044 34.6797 69.4948 34.6445 69.6864 34.6492C69.8754 34.6458 70.0632 34.6802 70.2384 34.7502C70.4136 34.8203 70.5726 34.9246 70.7059 35.0569C71.0106 35.3818 71.1777 35.8094 71.1728 36.2519L68.15 36.2413ZM79.229 33.1273H80.9829V40.8385H79.229V37.6437H76.1456V40.8385H74.3632V33.1379H76.1456V36.2694H79.2397L79.229 33.1273ZM88.4972 37.6612L90.3152 38.4099C90.0638 39.1682 89.5617 39.8216 88.8893 40.2656C88.1611 40.7257 87.3085 40.9573 86.444 40.9299C85.8344 40.9424 85.2285 40.8349 84.6616 40.6135C84.1751 40.4214 83.7389 40.1234 83.3855 39.7419C83.0463 39.3604 82.7902 38.9141 82.6333 38.4309C82.4641 37.9061 82.3811 37.3579 82.3874 36.8072V34.0376C82.384 33.5078 82.4671 32.9809 82.6333 32.4771C82.794 31.9945 83.0496 31.5478 83.3855 31.1627C83.7379 30.7714 84.1737 30.4618 84.6616 30.2559C85.2265 30.0263 85.8332 29.9139 86.444 29.9255C87.3141 29.8976 88.1707 30.1438 88.8893 30.6284C89.5372 31.0788 90.0259 31.7179 90.2867 32.456L88.483 33.159C88.3596 32.75 88.1105 32.389 87.77 32.1257C87.3995 31.8514 86.9463 31.7079 86.4832 31.718C86.1559 31.7105 85.831 31.7741 85.5314 31.9042C85.2704 32.0213 85.0399 32.1956 84.8577 32.4139C84.6776 32.6275 84.5409 32.8733 84.4549 33.1379C84.3658 33.4044 84.32 33.6832 84.3194 33.9638V36.8493C84.3185 37.1428 84.3642 37.4345 84.4549 37.714C84.5407 37.9828 84.6774 38.2332 84.8577 38.452C85.0373 38.6765 85.2681 38.856 85.5314 38.9757C85.8291 39.1125 86.1548 39.1799 86.4832 39.1725C86.9572 39.1891 87.4222 39.0424 87.7985 38.7578C88.1431 38.4774 88.3899 38.0976 88.5044 37.6718L88.4972 37.6612ZM91.3775 33.1273H97.9009V40.8385H96.1185V34.6492H93.1634V40.849H91.3811L91.3775 33.1273ZM105.151 34.0376C104.856 33.7155 104.49 33.4632 104.082 33.2996C103.63 33.115 103.145 33.0241 102.656 33.0324C102.244 33.0356 101.834 33.1045 101.444 33.2363C101.031 33.3767 100.655 33.606 100.343 33.9076C99.9921 34.2546 99.7189 34.67 99.5406 35.1272C99.3203 35.7296 99.2163 36.3674 99.2341 37.0075C99.2126 37.6662 99.3166 38.3231 99.5406 38.9441C99.7134 39.398 99.9861 39.8085 100.339 40.1461C100.654 40.4348 101.034 40.6457 101.448 40.7612C101.849 40.874 102.264 40.9308 102.681 40.9299C103.197 40.9271 103.71 40.8441 104.2 40.6838C104.729 40.5035 105.215 40.2162 105.626 39.8403C105.437 39.6365 105.269 39.4291 105.105 39.2253C104.941 39.0214 104.77 38.8176 104.581 38.6137C104.305 38.8732 103.972 39.0668 103.608 39.1796C103.326 39.2771 103.03 39.3327 102.731 39.3447C102.475 39.3503 102.221 39.2974 101.99 39.1901C101.788 39.0907 101.61 38.9492 101.469 38.7754C101.329 38.6004 101.226 38.3997 101.166 38.1849C101.102 37.956 101.071 37.7194 101.073 37.482H106.018V36.7158C106.023 36.1987 105.946 35.6839 105.79 35.1904C105.661 34.7664 105.444 34.3737 105.151 34.0376ZM101.13 36.2413C101.154 35.804 101.327 35.3876 101.622 35.0604C101.755 34.9231 101.915 34.8146 102.092 34.742C102.27 34.6693 102.461 34.6341 102.653 34.6386C102.841 34.6355 103.028 34.67 103.203 34.7401C103.377 34.8102 103.536 34.9143 103.669 35.0463C103.975 35.3707 104.143 35.7983 104.139 36.2413H101.13ZM114.003 39.2674H115.15V43H113.539V40.849H107.39V33.1379H109.172V39.278H112.234V33.1379H113.995L114.003 39.2674ZM122.102 37.6612L123.92 38.4099C123.668 39.1682 123.166 39.8216 122.494 40.2656C121.766 40.725 120.915 40.9566 120.052 40.9299C119.442 40.9416 118.837 40.8341 118.269 40.6135C117.784 40.4213 117.349 40.1234 116.997 39.7419C116.655 39.3615 116.398 38.915 116.241 38.4309C116.072 37.9061 115.989 37.3579 115.995 36.8072V34.0376C115.992 33.5078 116.075 32.9809 116.241 32.4771C116.402 31.9938 116.659 31.5469 116.997 31.1627C117.348 30.7715 117.783 30.4618 118.269 30.2559C118.835 30.0271 119.441 29.9147 120.052 29.9255C120.921 29.8981 121.776 30.1443 122.494 30.6284C123.144 31.0759 123.632 31.7161 123.887 32.456L122.087 33.159C121.964 32.75 121.715 32.389 121.374 32.1257C120.994 31.8468 120.529 31.7054 120.055 31.725C119.727 31.7176 119.401 31.7811 119.1 31.9113C118.84 32.0302 118.61 32.2042 118.426 32.4209C118.246 32.6346 118.11 32.8804 118.024 33.1449C117.936 33.4116 117.891 33.6904 117.892 33.9709V36.8493C117.89 37.1426 117.934 37.4343 118.024 37.714C118.109 37.9828 118.246 38.2332 118.426 38.452C118.607 38.6749 118.838 38.8541 119.1 38.9757C119.399 39.113 119.726 39.1804 120.055 39.1725C120.528 39.1885 120.992 39.0419 121.367 38.7578C121.722 38.4815 121.979 38.1012 122.102 37.6718V37.6612ZM133.295 29.9923H135.127V40.8385H133.213V34.4137H133.181L132.6 35.8196L131.79 37.5769L130.935 39.3518H129.406L128.775 38.0268L127.73 35.7493L127.146 34.3891L127.099 34.4383V40.842H125.189V30.0028H126.971L128.397 33.1062C128.707 33.76 128.996 34.4102 129.277 35.0569L130.122 37.004H130.186L131.07 34.9304L131.876 33.1062L133.295 29.9923ZM144.655 29.9923L141.447 38.4274C141.288 38.8587 141.1 39.279 140.884 39.6857C140.722 39.9851 140.514 40.2579 140.267 40.494C140.057 40.6877 139.807 40.833 139.533 40.9193C139.238 41.0118 138.93 41.0557 138.62 41.0494H137.594V39.4256H138.335C138.555 39.4354 138.773 39.3816 138.963 39.2709C139.157 39.1262 139.307 38.9317 139.397 38.7086L139.508 38.4274L136.171 29.9923H138.257L139.444 33.4226L140.453 36.2343H140.531L141.447 33.4612L142.616 29.9993L144.655 29.9923ZM58.0726 29.9923H65.0951V40.8279H63.1879V31.6898H59.8443V36.7615C59.8443 37.721 59.8443 39.1163 59.2169 39.9036C58.5895 40.6909 57.5201 40.835 56.882 40.835H56.415V39.1339H56.4828C56.7403 39.1474 56.9971 39.0973 57.2299 38.988C57.4628 38.8787 57.6642 38.7138 57.816 38.5083C58.0116 38.0473 58.0981 37.5485 58.0691 37.0497V30.0028L58.0726 29.9923ZM83.0254 25.6271C82.7989 25.8517 82.5278 26.0278 82.2291 26.1445C81.9304 26.2612 81.6105 26.316 81.2894 26.3054H80.6799V24.7308H80.9258C81.0983 24.7561 81.2744 24.7317 81.4331 24.6606C81.5918 24.5895 81.7264 24.4748 81.8206 24.3302C81.9528 23.8976 82.0094 23.4459 81.9881 22.9946V18.5064H87.7201V26.3054H85.9128V20.0458H83.6314V23.0544C83.6314 23.933 83.6314 25.019 83.0433 25.6376L83.0254 25.6271ZM94.076 26.0137C94.6024 25.7757 95.0444 25.3876 95.345 24.8995C95.5375 24.5584 95.6747 24.1895 95.7514 23.8065C95.8516 23.3007 95.8982 22.7859 95.8904 22.2706C95.9036 21.7823 95.8606 21.2942 95.7621 20.8155C95.6819 20.4215 95.5297 20.0452 95.3129 19.7049C95.0268 19.2892 94.6329 18.9566 94.1722 18.7419C93.6733 18.5045 93.1255 18.3843 92.5717 18.3904C91.9055 18.3759 91.2474 18.536 90.6646 18.8544C90.1206 19.1577 89.6877 19.6226 89.4276 20.1829C89.2698 20.5007 89.1639 20.8412 89.1139 21.1916C89.0537 21.5871 89.025 21.9867 89.0284 22.3866C89.007 23.5933 89.2149 24.5165 89.6522 25.1561C89.9282 25.5682 90.3212 25.8909 90.7822 26.084C91.3118 26.2927 91.8786 26.394 92.4488 26.3819C93.019 26.3698 93.5809 26.2446 94.1009 26.0137H94.076ZM91.046 23.9049C90.9436 23.696 90.8784 23.4713 90.8535 23.2406C90.8192 22.9643 90.8025 22.6861 90.8036 22.4077C90.812 22.1288 90.837 21.8507 90.8784 21.5747C90.9087 21.3318 90.976 21.0948 91.0781 20.8718C91.1987 20.6083 91.3928 20.384 91.6377 20.2251C91.887 20.0695 92.1769 19.9889 92.4719 19.9931C92.7581 19.9897 93.0396 20.0651 93.2846 20.211C93.5337 20.3729 93.7217 20.6113 93.8193 20.8893C93.9803 21.3269 94.0506 21.7918 94.0261 22.2565C94.032 22.5357 94.0213 22.8151 93.994 23.093C93.9779 23.2804 93.9408 23.4655 93.8835 23.6448C93.8032 23.9713 93.6111 24.2605 93.3397 24.4635C93.0682 24.6665 92.7339 24.7708 92.3934 24.759C92.1033 24.7637 91.8182 24.6843 91.5736 24.5305C91.3475 24.3765 91.1726 24.1601 91.0709 23.9084L91.046 23.9049ZM102.097 23.0544H98.9667V26.2808H97.1772V18.4959H98.9774V21.659H102.107V18.4959H103.89V26.2843H102.107L102.097 23.0544ZM62.9883 22.2354V21.4939H59.5555V19.8279H62.9883V19.3253C62.9892 19.0472 62.9569 18.77 62.8921 18.4994C62.8293 18.2377 62.7155 17.9906 62.557 17.7718C62.3852 17.5515 62.1629 17.3744 61.9082 17.2552C61.5291 17.0965 61.1163 17.0321 60.7061 17.0676C60.2958 17.1032 59.9007 17.2376 59.5555 17.459C59.1824 17.7139 58.9074 18.0854 58.7749 18.5134L56.9533 17.8105C57.0903 17.4307 57.2877 17.0748 57.5379 16.7561C57.7899 16.4398 58.0921 16.1657 58.4327 15.9442C58.7845 15.7152 59.1706 15.542 59.5769 15.4311C60.0206 15.3046 60.4804 15.2419 60.9422 15.2448C61.583 15.231 62.2195 15.3508 62.8101 15.5963C63.2829 15.7969 63.6998 16.1067 64.0256 16.4995C64.3412 16.8915 64.5706 17.344 64.6994 17.8281C64.8402 18.3414 64.911 18.8709 64.9097 19.4026V22.2144C64.9125 22.7725 64.8258 23.3277 64.653 23.8592C64.4924 24.3482 64.2275 24.7976 63.8759 25.1772C63.52 25.556 63.0845 25.8535 62.5998 26.0488C62.0241 26.2749 61.4084 26.3849 60.7889 26.3722C59.9185 26.3994 59.0604 26.1639 58.3293 25.6974C57.656 25.2466 57.1543 24.5874 56.9034 23.8241L58.725 23.0684C58.8552 23.4953 59.1092 23.8752 59.4557 24.1615C59.8324 24.4536 60.3031 24.602 60.7818 24.5797C61.1298 24.5877 61.4753 24.5206 61.7942 24.3829C62.0621 24.2625 62.2977 24.082 62.4821 23.8557C62.6573 23.6329 62.7868 23.3786 62.8636 23.1071C62.9469 22.8238 62.9889 22.5304 62.9883 22.2354ZM68.2177 20.0423H65.808V18.517H72.4169V20.0423H70.0036V26.3054H68.2035L68.2177 20.0423ZM76.748 26.1965C77.0971 26.0877 77.4058 25.8799 77.6356 25.599H77.6677V26.3019H79.4501V21.0334C79.4655 20.6004 79.3751 20.17 79.1863 19.7787C79.0205 19.4588 78.7752 19.1855 78.4733 18.9844C78.1649 18.7837 77.8199 18.6441 77.4574 18.5732C77.0418 18.4926 76.6191 18.4526 76.1955 18.4537C75.6559 18.4524 75.119 18.5294 74.6021 18.6821C74.0949 18.8344 73.6334 19.1072 73.2582 19.4764L74.2171 20.6749C74.443 20.4641 74.7097 20.3003 75.0013 20.1934C75.3554 20.0733 75.7285 20.0173 76.1028 20.0282C76.3605 20.0219 76.6176 20.0539 76.8657 20.1231C77.0403 20.173 77.2036 20.2553 77.3469 20.3657C77.459 20.46 77.5449 20.5809 77.5964 20.7171C77.6434 20.8541 77.6675 20.9978 77.6677 21.1424V21.7083H75.5289C75.1354 21.7011 74.7439 21.7655 74.3739 21.898C74.062 22.0091 73.7768 22.1826 73.5362 22.4077C73.316 22.6161 73.1402 22.8658 73.0194 23.1422C72.9048 23.4275 72.8468 23.7317 72.8482 24.0385C72.8279 24.364 72.8835 24.6897 73.0108 24.9907C73.1381 25.2917 73.3337 25.5599 73.5826 25.7747C74.1507 26.2077 74.8584 26.4237 75.5752 26.3827C75.9738 26.383 76.3697 26.3201 76.748 26.1965ZM74.8623 24.5657C74.7569 24.4861 74.6746 24.3806 74.6235 24.2599C74.5772 24.1483 74.553 24.029 74.5522 23.9084C74.5519 23.7906 74.5784 23.6743 74.6295 23.5679C74.6807 23.4615 74.7554 23.3677 74.848 23.2934C75.1371 23.101 75.4846 23.0129 75.8319 23.0438H77.6677V23.5464C77.6665 23.6264 77.6606 23.7062 77.6499 23.7854C77.6363 23.972 77.5696 24.1511 77.4574 24.3021C77.3511 24.4376 77.2176 24.55 77.0653 24.6324C76.9036 24.7193 76.7292 24.781 76.5484 24.8152C76.3544 24.8506 76.1575 24.8682 75.9602 24.8679C75.7349 24.874 75.5101 24.8455 75.2936 24.7836C75.139 24.7339 74.9934 24.6604 74.8623 24.5657Z" fill="white"/>
</g>
<defs>
<filter id="filter0_d" x="0" y="0" width="146.655" height="46" filterUnits="userSpaceOnUse" color-interpolation-filters="sRGB">
<feFlood flood-opacity="0" result="BackgroundImageFix"/>
<feColorMatrix in="SourceAlpha" type="matrix" values="0 0 0 0 0 0 0 0 0 0 0 0 0 0 0 0 0 0 127 0"/>
<feOffset dy="1"/>
<feGaussianBlur stdDeviation="1"/>
<feColorMatrix type="matrix" values="0 0 0 0 0 0 0 0 0 0 0 0 0 0 0 0 0 0 0.1 0"/>
<feBlend mode="normal" in2="BackgroundImageFix" result="effect1_dropShadow"/>
<feBlend mode="normal" in="SourceGraphic" in2="effect1_dropShadow" result="shape"/>
</filter>
</defs>
</svg>
